<?xml version="1.0" encoding="UTF-8" standalone="no"?>
<svg
   xmlns:ooo="http://xml.openoffice.org/svg/export"
   xmlns:dc="http://purl.org/dc/elements/1.1/"
   xmlns:cc="http://creativecommons.org/ns#"
   xmlns:rdf="http://www.w3.org/1999/02/22-rdf-syntax-ns#"
   xmlns:svg="http://www.w3.org/2000/svg"
   xmlns="http://www.w3.org/2000/svg"
   xmlns:sodipodi="http://sodipodi.sourceforge.net/DTD/sodipodi-0.dtd"
   xmlns:inkscape="http://www.inkscape.org/namespaces/inkscape"
   version="1.2"
   width="152.4mm"
   height="152.4mm"
   viewBox="0 0 15240 15240"
   preserveAspectRatio="xMidYMid"
   fill-rule="evenodd"
   stroke-width="28.222"
   stroke-linejoin="round"
   xml:space="preserve"
   id="svg87"
   sodipodi:docname="decrypt-fa.svg"
   inkscape:version="0.92.5 (2060ec1f9f, 2020-04-08)"><metadata
   id="metadata91"><rdf:RDF><cc:Work
       rdf:about=""><dc:format>image/svg+xml</dc:format><dc:type
         rdf:resource="http://purl.org/dc/dcmitype/StillImage" /><dc:title></dc:title></cc:Work></rdf:RDF></metadata><sodipodi:namedview
   pagecolor="#ffffff"
   bordercolor="#666666"
   borderopacity="1"
   objecttolerance="10"
   gridtolerance="10"
   guidetolerance="10"
   inkscape:pageopacity="0"
   inkscape:pageshadow="2"
   inkscape:window-width="1848"
   inkscape:window-height="1016"
   id="namedview89"
   showgrid="false"
   inkscape:zoom="0.40972224"
   inkscape:cx="287.99999"
   inkscape:cy="287.99999"
   inkscape:window-x="72"
   inkscape:window-y="27"
   inkscape:window-maximized="1"
   inkscape:current-layer="svg87" />
 <defs
   class="ClipPathGroup"
   id="defs8">
  <clipPath
   id="presentation_clip_path"
   clipPathUnits="userSpaceOnUse">
   <rect
   x="0"
   y="0"
   width="15240"
   height="15240"
   id="rect2" />
  </clipPath>
  <clipPath
   id="presentation_clip_path_shrink"
   clipPathUnits="userSpaceOnUse">
   <rect
   x="15"
   y="15"
   width="15210"
   height="15210"
   id="rect5" />
  </clipPath>
 
  
 
  
 
   
  
   
   
  
    
   
     
    
      
      
      
      
     
       
      
       
      
       
      
       
      
        
        
       
        
        
       
        
        
       
        
        
       </defs>
 <defs
   class="TextShapeIndex"
   id="defs12">
  <g
   ooo:slide="id1"
   ooo:id-list="id3 id4 id5 id6"
   id="g10" />
 </defs>
 <defs
   class="EmbeddedBulletChars"
   id="defs44">
  <g
   id="bullet-char-template-57356"
   transform="scale(0.00048828125,-0.00048828125)">
   <path
   d="M 580,1141 L 1163,571 580,0 -4,571 580,1141 Z"
   id="path14" />
  </g>
  <g
   id="bullet-char-template-57354"
   transform="scale(0.00048828125,-0.00048828125)">
   <path
   d="M 8,1128 L 1137,1128 1137,0 8,0 8,1128 Z"
   id="path17" />
  </g>
  <g
   id="bullet-char-template-10146"
   transform="scale(0.00048828125,-0.00048828125)">
   <path
   d="M 174,0 L 602,739 174,1481 1456,739 174,0 Z M 1358,739 L 309,1346 659,739 1358,739 Z"
   id="path20" />
  </g>
  <g
   id="bullet-char-template-10132"
   transform="scale(0.00048828125,-0.00048828125)">
   <path
   d="M 2015,739 L 1276,0 717,0 1260,543 174,543 174,936 1260,936 717,1481 1274,1481 2015,739 Z"
   id="path23" />
  </g>
  <g
   id="bullet-char-template-10007"
   transform="scale(0.00048828125,-0.00048828125)">
   <path
   d="M 0,-2 C -7,14 -16,27 -25,37 L 356,567 C 262,823 215,952 215,954 215,979 228,992 255,992 264,992 276,990 289,987 310,991 331,999 354,1012 L 381,999 492,748 772,1049 836,1024 860,1049 C 881,1039 901,1025 922,1006 886,937 835,863 770,784 769,783 710,716 594,584 L 774,223 C 774,196 753,168 711,139 L 727,119 C 717,90 699,76 672,76 641,76 570,178 457,381 L 164,-76 C 142,-110 111,-127 72,-127 30,-127 9,-110 8,-76 1,-67 -2,-52 -2,-32 -2,-23 -1,-13 0,-2 Z"
   id="path26" />
  </g>
  <g
   id="bullet-char-template-10004"
   transform="scale(0.00048828125,-0.00048828125)">
   <path
   d="M 285,-33 C 182,-33 111,30 74,156 52,228 41,333 41,471 41,549 55,616 82,672 116,743 169,778 240,778 293,778 328,747 346,684 L 369,508 C 377,444 397,411 428,410 L 1163,1116 C 1174,1127 1196,1133 1229,1133 1271,1133 1292,1118 1292,1087 L 1292,965 C 1292,929 1282,901 1262,881 L 442,47 C 390,-6 338,-33 285,-33 Z"
   id="path29" />
  </g>
  <g
   id="bullet-char-template-9679"
   transform="scale(0.00048828125,-0.00048828125)">
   <path
   d="M 813,0 C 632,0 489,54 383,161 276,268 223,411 223,592 223,773 276,916 383,1023 489,1130 632,1184 813,1184 992,1184 1136,1130 1245,1023 1353,916 1407,772 1407,592 1407,412 1353,268 1245,161 1136,54 992,0 813,0 Z"
   id="path32" />
  </g>
  <g
   id="bullet-char-template-8226"
   transform="scale(0.00048828125,-0.00048828125)">
   <path
   d="M 346,457 C 273,457 209,483 155,535 101,586 74,649 74,723 74,796 101,859 155,911 209,963 273,989 346,989 419,989 480,963 531,910 582,859 608,796 608,723 608,648 583,586 532,535 482,483 420,457 346,457 Z"
   id="path35" />
  </g>
  <g
   id="bullet-char-template-8211"
   transform="scale(0.00048828125,-0.00048828125)">
   <path
   d="M -4,459 L 1135,459 1135,606 -4,606 -4,459 Z"
   id="path38" />
  </g>
  <g
   id="bullet-char-template-61548"
   transform="scale(0.00048828125,-0.00048828125)">
   <path
   d="M 173,740 C 173,903 231,1043 346,1159 462,1274 601,1332 765,1332 928,1332 1067,1274 1183,1159 1299,1043 1357,903 1357,740 1357,577 1299,437 1183,322 1067,206 928,148 765,148 601,148 462,206 346,322 231,437 173,577 173,740 Z"
   id="path41" />
  </g>
 </defs>
 
 <rect
   style="fill:none;stroke:none"
   id="rect51"
   height="5906"
   width="7373"
   y="3573"
   x="6940"
   class="BoundingBox" /><path
   style="fill:#ffffff;stroke:none"
   inkscape:connector-curvature="0"
   id="path53"
   d="m 8239,3812 91,-119 92,-119 395,302 388,219 385,151 379,91 370,39 359,-6 343,-42 324,-71 301,-93 274,-106 243,-112 205,-108 293,-180 103,-73 87,122 87,122 -108,76 c -2,2 -5,4 -8,6 l -301,185 c -1,1 -2,1 -4,2 -1,1 -3,2 -4,3 l -214,113 c -2,1 -5,2 -7,3 l -250,115 c -3,2 -6,3 -9,4 l -283,110 c -3,1 -7,2 -10,3 l -312,97 c -4,1 -8,2 -12,3 l -337,74 c -5,1 -10,2 -14,2 l -359,44 c -5,1 -10,1 -16,1 l -375,6 c -1,0 -2,0 -3,0 -5,0 -10,0 -15,-1 l -389,-41 c -7,0 -13,-1 -20,-3 l -398,-95 c -7,-2 -14,-4 -20,-7 l -404,-158 c -7,-3 -13,-6 -19,-9 l -406,-230 c -1,0 -1,0 -2,0 -5,-3 -11,-7 -16,-11 z m -1106,1398 85,-124 84,-124 594,406 588,298 584,205 576,123 563,53 545,-7 521,-57 491,-97 455,-125 413,-144 366,-150 310,-147 441,-242 156,-100 80,127 81,127 -160,101 c -2,1 -4,3 -6,4 -1,0 -2,1 -3,1 l -448,247 c -3,1 -6,3 -8,4 l -319,150 c -2,1 -4,2 -6,3 l -373,154 c -3,1 -6,2 -8,3 l -422,147 c -4,1 -7,2 -10,3 l -465,128 c -4,1 -7,2 -11,2 l -502,99 c -5,1 -9,2 -13,2 l -534,59 c -5,0 -10,1 -15,1 l -560,7 c 0,0 -1,0 -2,0 -4,0 -9,0 -14,0 l -580,-55 c -5,0 -11,-1 -17,-3 l -594,-127 c -6,-1 -12,-3 -18,-5 l -603,-212 c -6,-2 -12,-4 -18,-7 l -605,-306 c -3,-2 -5,-3 -7,-4 -4,-2 -7,-4 -10,-6 z m -192,1730 81,-126 81,-126 633,407 628,298 625,205 617,124 602,53 583,-7 556,-57 525,-97 486,-126 440,-143 725,-300 469,-241 166,-100 77,129 77,129 -170,102 c -1,0 -2,0 -2,1 -2,1 -4,2 -6,3 l -479,247 c -3,2 -7,3 -11,5 l -737,304 c -3,2 -7,3 -11,4 l -449,147 c -3,1 -6,2 -9,2 l -496,129 c -4,0 -7,1 -10,2 l -536,99 c -4,0 -8,1 -12,1 l -569,59 c -5,1 -9,1 -14,1 l -597,7 c 0,0 -1,0 -2,0 -4,0 -8,0 -13,0 l -618,-55 c -5,0 -11,-1 -16,-2 l -634,-128 c -6,-1 -11,-2 -17,-4 l -642,-211 c -6,-2 -12,-5 -18,-7 l -645,-307 c -3,-1 -7,-3 -10,-5 -3,-1 -5,-3 -7,-4 z m 516,1684 74,-130 75,-130 535,304 529,223 527,153 521,93 508,40 492,-5 471,-43 443,-73 410,-94 372,-107 612,-225 396,-180 140,-74 70,132 70,133 -144,76 c -3,1 -5,3 -8,4 l -404,185 c -4,1 -7,3 -11,4 l -623,228 c -3,2 -7,3 -10,4 l -380,109 c -3,1 -6,2 -8,2 l -420,97 c -3,0 -6,1 -9,1 l -453,74 c -4,1 -7,1 -11,2 l -481,44 c -4,0 -8,0 -12,0 l -505,6 c -1,0 -1,0 -2,0 -4,0 -7,0 -11,0 l -523,-41 c -5,-1 -10,-1 -15,-2 l -535,-96 c -6,-1 -11,-2 -16,-3 l -543,-159 c -6,-1 -11,-3 -16,-5 l -546,-230 c -6,-2 -11,-5 -16,-8 z" /><rect
   style="fill:none;stroke:none"
   id="rect58"
   height="11274"
   width="14172"
   y="2438"
   x="413"
   class="BoundingBox" /><path
   style="fill:#666666;stroke:none"
   inkscape:connector-curvature="0"
   id="path60"
   d="m 14192,6636 9,-234 -6,-233 -21,-232 -38,-230 -52,-226 -68,-222 -83,-218 -98,-212 -113,-206 -126,-198 -139,-190 -151,-179 -163,-170 -175,-158 -185,-148 -195,-135 -204,-124 -88,-45 -17,-9 -105,-55 -107,-50 -108,-47 -109,-44 -111,-39 -112,-36 -113,-33 -114,-29 -115,-24 -116,-22 -116,-17 -117,-13 -118,-10 -118,-6 -118,-2 -209,6 v -8 l -2204,23 -1188,703 1293,-6 v 39 l -169,133 -177,159 -69,71 -3176,15 -855,516 3602,-9 -94,144 -116,207 -24,50 -5315,13 v -200 -200 l 1169,-3 1516,-914 v -3 l 1623,-8 1181,-699 -1192,12 -2,-200 -2,-200 4208,-43 v 8 l 200,-6 132,2 131,7 130,10 131,16 129,19 129,23 127,28 127,32 126,36 124,40 123,44 122,48 120,53 118,56 117,60 115,64 113,68 110,71 108,75 105,79 103,81 99,85 97,88 94,91 91,95 88,97 84,100 82,102 78,106 74,108 71,111 68,113 64,115 60,118 56,119 52,120 48,122 44,124 40,124 36,126 31,127 28,129 23,129 20,129 15,131 10,131 7,132 2,131 -2,132 -7,132 -10,131 -15,131 -20,129 -23,129 -28,129 -31,127 -36,126 -40,124 -44,124 -48,122 -52,120 -56,119 -60,118 -64,115 -68,113 -71,111 -74,108 -78,106 -82,102 -84,100 -88,97 -91,95 -94,91 -97,88 -99,85 -103,81 -105,79 -108,75 -110,71 -113,68 -115,64 -117,60 -118,56 -120,53 -122,48 -123,44 -124,40 -126,36 -127,32 -127,28 -129,23 -129,19 -131,16 -130,10 -131,7 -132,2 -132,-2 -131,-7 -130,-10 -131,-16 -129,-19 -129,-23 -127,-28 -127,-32 -126,-36 -124,-40 -123,-44 -122,-48 -120,-53 -118,-56 -117,-60 -115,-64 -168,-103 -161,-110 -156,-118 -150,-125 -900,772 408,483 -153,129 -153,129 -225,-267 -3341,2830 -22,21 -28,23 -10,7 -7,6 v -1 l -12,9 -31,19 -32,17 -33,15 -34,13 -34,10 -35,8 -36,6 -36,4 -36,1 -36,-1 -36,-4 -36,-6 -35,-8 -34,-10 -34,-13 -33,-15 -32,-17 -31,-19 -29,-21 -28,-23 -26,-25 -25,-26 -23,-28 -21,-29 -19,-31 -17,-32 -15,-33 -13,-34 -10,-34 -8,-35 -6,-36 -4,-36 -1,-36 1,-36 4,-36 6,-36 8,-35 10,-34 13,-34 15,-33 17,-32 19,-31 21,-29 23,-28 25,-26 26,-25 28,-23 17,-12 3337,-2827 -302,-357 153,-129 153,-129 441,523 866,-743 -111,-138 -106,-144 -99,-149 -93,-153 -71,-129 -67,-132 -61,-134 -57,-136 -51,-138 -47,-140 -31,-106 -1323,-724 -1666,12 v -25 l -795,-970 -586,3 -1,-200 -1,-200 4623,-25 -21,66 -57,226 -19,109 -3423,18 489,596 2877,-21 5,227 17,173 -620,5 684,374 31,135 68,222 83,218 98,212 113,206 126,199 139,189 151,180 163,169 175,159 185,147 195,136 11,7 31,23 97,67 100,65 101,61 104,57 105,55 107,50 108,47 109,44 111,39 112,36 113,33 114,29 115,24 116,22 116,17 117,13 118,10 118,6 118,2 118,-2 118,-6 118,-10 117,-13 116,-17 116,-22 115,-24 114,-29 113,-33 112,-36 111,-39 109,-44 108,-47 107,-50 105,-55 104,-57 101,-61 100,-65 97,-67 94,-71 92,-73 90,-76 87,-80 85,-82 82,-84 78,-88 77,-90 73,-92 70,-95 67,-98 64,-100 61,-101 58,-104 54,-106 50,-107 47,-109 43,-110 40,-111 36,-112 32,-114 29,-114 25,-115 21,-117 8,-55 22,-122 z M 6015,2473 v 200 200 h -595 v -200 -200 z m -802,0 v 200 200 h -595 v -200 -200 z m -799,0 v 200 200 H 3819 V 2673 2473 Z M 1727,4509 v 200 200 h -595 v -200 -200 z m -719,0 v 200 200 H 413 v -200 -200 z" /><rect
   style="fill:none;stroke:none"
   id="rect65"
   height="7123"
   width="4869"
   y="2939"
   x="8197"
   class="BoundingBox" /><path
   style="fill:#ffffff;stroke:none"
   inkscape:connector-curvature="0"
   id="path67"
   d="m 10362,2992 102,104 7,7 50,-114 138,54 78,31 28,-30 102,-104 774,671 3,3 4,4 3,3 3,4 581,656 3,3 2,3 3,4 2,3 224,321 5,7 1,3 183,316 2,3 1,2 2,3 1,3 145,310 1,3 1,3 2,3 1,3 108,304 1,3 1,3 1,3 1,3 75,298 1,3 1,3 v 3 l 1,3 44,290 v 4 l 1,3 v 3 3 l 16,283 v 7 5 l -11,274 v 5 4 l -1,5 -1,4 -89,522 -1,5 -1,5 -2,6 -1,5 -164,483 -2,5 -2,4 -1,4 -2,4 -219,441 -2,3 -1,3 -2,2 -1,3 -2,3 -254,395 -2,2 -2,3 -1,3 -2,2 -270,345 -7,8 -264,291 -7,7 -240,233 -5,5 -197,171 -6,5 -180,142 -96,-110 -45,-52 -28,68 -3,7 -68,142 -137,-59 -95,-41 42,87 -136,59 -137,59 -70,-146 -4,-8 -62,-152 -78,88 -97,109 -177,-142 -6,-5 -194,-171 -5,-5 -237,-233 -6,-7 -261,-291 -6,-8 -266,-345 -1,-2 -2,-3 -2,-3 -2,-2 -250,-395 -1,-2 -2,-3 -1,-3 -2,-3 -1,-3 -216,-441 -2,-4 -2,-4 -1,-4 -2,-5 -161,-483 -2,-5 -1,-5 -2,-5 v -5 l -89,-523 v -4 l -1,-4 v -4 -5 l -11,-274 v -5 -7 l 16,-283 v -3 -3 l 1,-3 v -3 l 43,-290 1,-4 v -3 l 1,-3 1,-3 74,-297 1,-3 1,-4 v -3 l 2,-3 106,-304 2,-3 1,-3 1,-2 1,-3 143,-311 1,-2 1,-3 2,-3 1,-2 180,-316 2,-4 5,-6 220,-322 3,-3 2,-3 3,-3 2,-3 572,-657 3,-3 3,-4 4,-3 3,-3 z m -551,873 -560,643 -213,310 -174,305 -137,299 -103,292 -71,285 -41,277 -15,270 10,259 85,503 155,465 209,426 242,383 258,336 254,283 230,227 188,166 135,108 -87,-213 -4,-10 -208,-656 -2,-9 -99,-407 -2,-7 -85,-455 -2,-8 -64,-498 v -9 l -35,-538 -1,-9 v 0 l 2,-574 1,-10 46,-606 2,-10 98,-634 3,-11 158,-657 1,-3 1,-3 1,-3 1,-2 226,-677 1,-3 1,-3 1,-3 2,-2 124,-286 z m 865,5835 160,-395 197,-625 175,-824 61,-474 33,-513 -2,-547 -44,-577 -93,-604 -151,-626 -214,-645 -168,-388 -132,302 -222,666 -157,646 -97,623 -46,595 -2,565 35,530 63,490 84,448 97,399 205,646 167,408 1,3 z m 433,-158 190,-166 235,-227 257,-284 262,-335 247,-383 211,-426 158,-465 86,-503 10,-259 -15,-270 -42,-277 -72,-284 -104,-292 -140,-299 -177,-305 -216,-310 -568,-643 -533,-462 180,416 1,2 1,3 1,3 1,3 218,656 1,3 1,3 1,3 v 2 l 153,637 2,11 96,615 1,10 45,587 v 10 l 2,557 v 0 9 l -34,522 -1,8 -62,484 -1,11 -178,836 -1,3 -1,3 v 3 l -1,3 -201,636 -4,10 -79,195 z" /><rect
   style="fill:none;stroke:none"
   id="rect72"
   height="6406"
   width="6683"
   y="3258"
   x="7228"
   class="BoundingBox" /><path
   style="fill:#666666;stroke:none"
   inkscape:connector-curvature="0"
   id="path74"
   d="m 8644,4122 c 5,4 11,8 16,11 1,0 1,0 2,0 l 353,200 -1,1 -2,3 -3,3 -2,3 -3,3 -220,322 -5,6 -2,4 -180,316 -1,2 -2,3 -1,3 -1,2 -143,311 -1,3 -1,2 -1,3 -2,3 -97,277 -456,-233 -358,-248 51,-107 105,-187 118,-180 129,-172 140,-162 150,-154 160,-144 59,-46 z m 847,408 c 6,3 13,5 20,7 l 398,95 c 5,1 10,2 14,3 l -97,403 -3,11 -98,634 -2,10 -23,310 -83,-8 -569,-123 -425,-151 1,-7 103,-292 137,-299 174,-305 213,-310 47,-53 z m 827,146 c 5,1 10,1 15,1 1,0 2,0 3,0 l 375,-6 c 6,0 11,0 16,-1 l 313,-38 123,509 93,604 17,229 -47,10 -514,57 -538,7 -176,-17 24,-312 97,-623 104,-430 z m 1119,-126 c 4,-1 8,-2 12,-3 l 312,-97 c 3,-1 7,-2 10,-3 l 163,-63 65,73 216,310 177,305 140,299 81,229 -44,19 -409,143 -449,125 -141,28 -15,-196 -1,-10 -96,-615 -2,-11 -122,-511 z m 876,-332 c 2,-1 5,-2 7,-3 l 214,-113 c 1,-1 3,-2 4,-3 2,-1 3,-1 4,-2 l 200,-123 50,40 158,143 148,154 137,163 126,171 114,180 102,187 44,95 -384,214 -307,147 -41,17 -75,-211 -1,-3 -2,-3 -1,-3 -1,-3 -145,-310 -1,-3 -2,-3 -1,-2 -2,-3 -183,-316 -1,-3 -5,-7 -224,-321 -2,-3 -3,-4 -2,-3 -3,-3 -17,-19 z m 76,-379 -205,108 -174,80 -356,-402 -3,-4 -3,-3 -4,-4 -3,-3 -384,-333 203,46 208,61 203,74 199,87 192,99 186,112 35,24 z m -722,326 -301,93 -116,26 -168,-505 -1,-3 -1,-3 -1,-3 -1,-2 -180,-416 533,462 291,330 z m -968,206 -359,6 -39,-4 197,-589 132,-302 168,388 156,470 z m -729,-33 -379,-91 -84,-33 304,-349 532,-469 -124,286 -2,2 -1,3 -1,3 -1,3 -217,648 z m -764,-242 -388,-219 -121,-92 38,-26 187,-112 194,-100 200,-87 205,-74 209,-61 213,-48 117,-19 -461,406 -3,3 -4,3 -3,4 -3,3 -369,424 z M 7728,5622 c 4,2 7,5 11,7 2,1 4,2 6,3 l 525,269 -10,39 -1,3 -1,3 v 3 l -1,4 -43,290 v 3 l -1,3 v 3 3 l -16,283 v 7 5 l 11,274 v 5 4 l 1,4 v 4 l 89,523 v 5 l 2,5 1,5 1,3 -583,-286 -473,-313 -12,-131 -6,-212 9,-211 24,-210 37,-208 51,-205 65,-201 z m 1229,536 c 6,2 12,3 18,5 l 588,127 c 5,2 11,2 17,3 l 97,9 -1,7 -2,574 v 0 l 1,9 35,538 v 9 l 40,304 -223,-20 -596,-124 -273,-92 -66,-199 -85,-503 -10,-259 15,-270 39,-262 z m 1196,190 c 5,0 10,0 15,0 0,0 1,0 2,0 l 553,-7 c 5,0 10,-1 15,-1 l 528,-59 c 4,0 8,-1 12,-2 l 18,-3 4,46 2,547 -33,513 -42,327 -15,3 -538,57 -564,7 -55,-5 -46,-362 -35,-530 2,-548 z m 1622,-168 c 4,0 7,-1 11,-2 l 460,-128 c 3,-1 6,-2 9,-3 l 417,-147 c 3,-1 6,-2 8,-3 l 14,-5 14,55 42,277 15,270 -10,259 -86,503 -27,79 -26,11 -426,144 -470,125 -183,35 30,-238 1,-8 34,-522 v -9 0 l -2,-557 v -10 l -7,-89 z m 1274,-437 c 2,-1 5,-2 7,-3 l 314,-150 c 3,-2 6,-3 8,-5 l 358,-198 5,14 62,201 47,205 34,208 20,210 5,212 -9,212 -9,83 -120,74 -453,241 -334,142 68,-399 1,-4 1,-5 v -4 -5 l 11,-274 v -5 -7 l -16,-283 v -3 -3 l -1,-3 v -4 l -44,-290 -1,-3 v -3 l -1,-3 -1,-3 -28,-113 z M 7562,7352 c 2,2 5,3 7,5 3,2 6,3 10,5 l 624,306 c 6,3 12,5 18,7 l 202,69 41,123 2,5 1,4 2,4 2,4 216,441 1,3 2,3 1,3 2,3 1,2 209,330 -256,-77 -517,-222 -422,-246 -45,-72 -102,-186 -89,-193 -75,-197 -62,-201 -20,-86 z m 1281,534 c 6,2 12,4 18,5 l 614,128 c 5,1 11,2 17,2 l 303,28 66,351 2,7 99,407 2,9 13,40 -308,-25 -319,-58 -152,-198 -242,-383 -162,-329 z m 1263,190 578,-7 c 5,0 10,-1 14,-1 l 476,-51 -141,663 -50,161 -338,32 -351,4 -41,-131 -97,-399 -51,-271 c 0,0 1,0 1,0 z m 1675,-167 c 4,-1 7,-2 11,-3 l 480,-128 c 3,-1 6,-2 9,-3 l 239,-80 -9,26 -211,426 -247,383 -100,128 -16,5 -401,94 -226,38 13,-40 1,-3 v -3 l 1,-3 1,-3 165,-779 z m 1661,-589 c 4,-1 7,-3 11,-5 l 375,-199 -39,155 -65,202 -79,197 -92,192 -105,187 -24,37 -4,-9 -137,74 -386,181 -481,180 144,-224 2,-3 1,-3 2,-2 1,-3 2,-3 219,-441 2,-4 1,-4 2,-4 2,-5 87,-256 z M 8536,8871 c 5,2 11,4 16,6 l 531,158 c 5,2 11,3 16,4 l 92,17 26,33 6,8 261,291 6,7 150,147 -170,-49 -203,-75 -199,-86 -193,-100 -185,-112 -177,-123 -167,-133 -155,-142 z m 1539,301 97,307 4,10 65,159 -52,-5 -61,-49 -188,-166 -230,-227 -57,-63 z m 580,0 c 4,0 8,0 12,0 l 218,-21 -49,154 -143,353 -125,4 -110,-270 -69,-217 z m 935,-120 c 4,0 7,-1 10,-2 l 29,-6 -95,105 -235,227 -190,166 -70,54 79,-195 4,-10 87,-275 z m 799,-210 c 4,-1 7,-2 10,-3 l 609,-228 c 4,-2 7,-3 11,-5 l 3,-2 -110,113 -160,144 -170,134 -179,123 -187,112 -194,100 -200,87 -205,74 -26,8 160,-155 7,-7 264,-291 7,-8 91,-116 z" />
</svg>