<?xml version="1.0" encoding="UTF-8" standalone="no"?>
<svg
   xmlns:ooo="http://xml.openoffice.org/svg/export"
   xmlns:dc="http://purl.org/dc/elements/1.1/"
   xmlns:cc="http://creativecommons.org/ns#"
   xmlns:rdf="http://www.w3.org/1999/02/22-rdf-syntax-ns#"
   xmlns:svg="http://www.w3.org/2000/svg"
   xmlns="http://www.w3.org/2000/svg"
   xmlns:sodipodi="http://sodipodi.sourceforge.net/DTD/sodipodi-0.dtd"
   xmlns:inkscape="http://www.inkscape.org/namespaces/inkscape"
   version="1.2"
   width="152.4mm"
   height="152.4mm"
   viewBox="0 0 15240 15240"
   preserveAspectRatio="xMidYMid"
   fill-rule="evenodd"
   stroke-width="28.222"
   stroke-linejoin="round"
   xml:space="preserve"
   id="svg80"
   sodipodi:docname="decrypt_fa.svg"
   inkscape:version="0.92.5 (2060ec1f9f, 2020-04-08)"><metadata
   id="metadata84"><rdf:RDF><cc:Work
       rdf:about=""><dc:format>image/svg+xml</dc:format><dc:type
         rdf:resource="http://purl.org/dc/dcmitype/StillImage" /></cc:Work></rdf:RDF></metadata><sodipodi:namedview
   pagecolor="#ffffff"
   bordercolor="#666666"
   borderopacity="1"
   objecttolerance="10"
   gridtolerance="10"
   guidetolerance="10"
   inkscape:pageopacity="0"
   inkscape:pageshadow="2"
   inkscape:window-width="1848"
   inkscape:window-height="1016"
   id="namedview82"
   showgrid="false"
   inkscape:zoom="0.40972224"
   inkscape:cx="287.99999"
   inkscape:cy="287.99999"
   inkscape:window-x="72"
   inkscape:window-y="27"
   inkscape:window-maximized="1"
   inkscape:current-layer="svg80" />
 <defs
   class="ClipPathGroup"
   id="defs8">
  <clipPath
   id="presentation_clip_path"
   clipPathUnits="userSpaceOnUse">
   <rect
   x="0"
   y="0"
   width="15240"
   height="15240"
   id="rect2" />
  </clipPath>
  <clipPath
   id="presentation_clip_path_shrink"
   clipPathUnits="userSpaceOnUse">
   <rect
   x="15"
   y="15"
   width="15210"
   height="15210"
   id="rect5" />
  </clipPath>
 
  
 
  
 
   
  
   
   
  
    
   
     
    
      
      
      
     
       
      
       
      
       
      
        
        
       
        
        
       
        
        
       </defs>
 <defs
   class="TextShapeIndex"
   id="defs12">
  <g
   ooo:slide="id1"
   ooo:id-list="id3 id4 id5"
   id="g10" />
 </defs>
 <defs
   class="EmbeddedBulletChars"
   id="defs44">
  <g
   id="bullet-char-template-57356"
   transform="scale(0.00048828125,-0.00048828125)">
   <path
   d="M 580,1141 L 1163,571 580,0 -4,571 580,1141 Z"
   id="path14" />
  </g>
  <g
   id="bullet-char-template-57354"
   transform="scale(0.00048828125,-0.00048828125)">
   <path
   d="M 8,1128 L 1137,1128 1137,0 8,0 8,1128 Z"
   id="path17" />
  </g>
  <g
   id="bullet-char-template-10146"
   transform="scale(0.00048828125,-0.00048828125)">
   <path
   d="M 174,0 L 602,739 174,1481 1456,739 174,0 Z M 1358,739 L 309,1346 659,739 1358,739 Z"
   id="path20" />
  </g>
  <g
   id="bullet-char-template-10132"
   transform="scale(0.00048828125,-0.00048828125)">
   <path
   d="M 2015,739 L 1276,0 717,0 1260,543 174,543 174,936 1260,936 717,1481 1274,1481 2015,739 Z"
   id="path23" />
  </g>
  <g
   id="bullet-char-template-10007"
   transform="scale(0.00048828125,-0.00048828125)">
   <path
   d="M 0,-2 C -7,14 -16,27 -25,37 L 356,567 C 262,823 215,952 215,954 215,979 228,992 255,992 264,992 276,990 289,987 310,991 331,999 354,1012 L 381,999 492,748 772,1049 836,1024 860,1049 C 881,1039 901,1025 922,1006 886,937 835,863 770,784 769,783 710,716 594,584 L 774,223 C 774,196 753,168 711,139 L 727,119 C 717,90 699,76 672,76 641,76 570,178 457,381 L 164,-76 C 142,-110 111,-127 72,-127 30,-127 9,-110 8,-76 1,-67 -2,-52 -2,-32 -2,-23 -1,-13 0,-2 Z"
   id="path26" />
  </g>
  <g
   id="bullet-char-template-10004"
   transform="scale(0.00048828125,-0.00048828125)">
   <path
   d="M 285,-33 C 182,-33 111,30 74,156 52,228 41,333 41,471 41,549 55,616 82,672 116,743 169,778 240,778 293,778 328,747 346,684 L 369,508 C 377,444 397,411 428,410 L 1163,1116 C 1174,1127 1196,1133 1229,1133 1271,1133 1292,1118 1292,1087 L 1292,965 C 1292,929 1282,901 1262,881 L 442,47 C 390,-6 338,-33 285,-33 Z"
   id="path29" />
  </g>
  <g
   id="bullet-char-template-9679"
   transform="scale(0.00048828125,-0.00048828125)">
   <path
   d="M 813,0 C 632,0 489,54 383,161 276,268 223,411 223,592 223,773 276,916 383,1023 489,1130 632,1184 813,1184 992,1184 1136,1130 1245,1023 1353,916 1407,772 1407,592 1407,412 1353,268 1245,161 1136,54 992,0 813,0 Z"
   id="path32" />
  </g>
  <g
   id="bullet-char-template-8226"
   transform="scale(0.00048828125,-0.00048828125)">
   <path
   d="M 346,457 C 273,457 209,483 155,535 101,586 74,649 74,723 74,796 101,859 155,911 209,963 273,989 346,989 419,989 480,963 531,910 582,859 608,796 608,723 608,648 583,586 532,535 482,483 420,457 346,457 Z"
   id="path35" />
  </g>
  <g
   id="bullet-char-template-8211"
   transform="scale(0.00048828125,-0.00048828125)">
   <path
   d="M -4,459 L 1135,459 1135,606 -4,606 -4,459 Z"
   id="path38" />
  </g>
  <g
   id="bullet-char-template-61548"
   transform="scale(0.00048828125,-0.00048828125)">
   <path
   d="M 173,740 C 173,903 231,1043 346,1159 462,1274 601,1332 765,1332 928,1332 1067,1274 1183,1159 1299,1043 1357,903 1357,740 1357,577 1299,437 1183,322 1067,206 928,148 765,148 601,148 462,206 346,322 231,437 173,577 173,740 Z"
   id="path41" />
  </g>
 </defs>
 
 <rect
   style="fill:none;stroke:none"
   id="rect51"
   height="11172"
   width="11781"
   y="2339"
   x="2804"
   class="BoundingBox" /><path
   style="fill:#666666;stroke:none"
   inkscape:connector-curvature="0"
   id="path53"
   d="m 10362,2546 -12,-199 232,-7 132,2 131,7 130,10 131,16 129,19 129,23 127,28 127,32 126,36 124,40 123,44 122,48 120,53 118,56 117,60 115,64 113,68 110,71 108,75 105,79 103,81 99,85 97,88 94,91 91,95 88,97 84,100 82,102 78,106 74,108 71,111 68,113 64,115 60,118 56,119 52,120 48,122 44,124 40,124 36,126 31,127 28,129 23,129 20,129 15,131 10,131 7,132 2,131 -2,132 -7,132 -10,131 -15,131 -20,129 -23,129 -28,129 -31,127 -36,126 -40,124 -44,124 -48,122 -52,120 -56,119 -60,118 -64,115 -68,113 -71,111 -74,108 -78,106 -82,102 -84,100 -88,97 -91,95 -94,91 -97,88 -99,85 -103,81 -105,79 -108,75 -110,71 -113,68 -115,64 -117,60 -118,56 -120,53 -122,48 -123,44 -124,40 -126,36 -127,32 -127,28 -129,23 -129,19 -131,16 -130,10 -131,7 -132,2 -132,-2 -131,-7 -130,-10 -131,-16 -129,-19 -129,-23 -127,-28 -127,-32 -126,-36 -124,-40 -123,-44 -122,-48 -120,-53 -118,-56 -117,-60 -115,-64 -113,-68 -110,-71 -108,-75 -105,-79 -103,-81 -99,-85 -97,-88 -94,-91 -91,-95 -88,-97 -84,-100 -82,-102 -78,-106 -74,-108 -71,-111 -68,-113 -71,-129 -67,-132 -61,-134 -57,-136 -51,-138 -47,-140 -41,-142 -36,-143 195,-45 194,-46 33,129 37,128 42,126 46,124 51,123 56,120 60,119 64,117 61,101 64,100 67,98 70,95 73,92 77,90 78,88 82,84 85,82 87,80 90,76 92,73 94,71 97,67 100,65 101,61 104,57 105,55 107,50 108,47 109,44 111,39 112,36 113,33 114,29 115,24 116,22 116,17 117,13 118,10 118,6 118,2 118,-2 118,-6 118,-10 117,-13 116,-17 116,-22 115,-24 114,-29 113,-33 112,-36 111,-39 109,-44 108,-47 107,-50 105,-55 104,-57 101,-61 100,-65 97,-67 94,-71 92,-73 90,-76 87,-80 85,-82 82,-84 78,-88 77,-90 73,-92 70,-95 67,-98 64,-100 61,-101 58,-104 54,-106 50,-107 47,-109 43,-110 40,-111 36,-112 32,-114 29,-114 25,-115 21,-117 17,-116 14,-118 9,-118 6,-119 2,-119 -2,-118 -6,-119 -9,-118 -14,-118 -17,-116 -21,-117 -25,-115 -29,-114 -32,-114 -36,-112 -40,-111 -43,-110 -47,-109 -50,-107 -54,-106 -58,-104 -61,-101 -64,-100 -67,-98 -70,-95 -73,-92 -77,-90 -78,-88 -82,-84 -85,-82 -87,-80 -90,-76 -92,-73 -94,-71 -97,-67 -100,-65 -101,-61 -104,-57 -105,-55 -107,-50 -108,-47 -109,-44 -111,-39 -112,-36 -113,-33 -114,-29 -115,-24 -116,-22 -116,-17 -117,-13 -118,-10 -118,-6 -118,-2 -209,6 z m -2908,8086 -153,129 -153,129 -225,-267 -3408,2887 -355,-420 -355,-420 3409,-2888 -302,-357 153,-129 153,-129 z m -3394,-4165 -155,127 -155,127 -855,-1043 155,-127 155,-127 z" /><rect
   style="fill:none;stroke:none"
   id="rect58"
   height="11274"
   width="9975"
   y="2338"
   x="413"
   class="BoundingBox" /><path
   style="fill:#666666;stroke:none"
   inkscape:connector-curvature="0"
   id="path60"
   d="m 8111,3583 -170,150 -128,127 -3130,15 -855,516 3573,-9 -30,45 -111,194 -78,162 -5301,13 v -200 -200 l 1169,-3 1516,-914 v -3 l 1623,-8 1181,-699 -1192,12 -2,-200 -2,-200 4208,-43 2,200 2,200 -2217,23 -1188,703 1293,-6 v 0 z m -1151,1865 -38,216 -6,56 -4555,24 -1,-200 -1,-200 4633,-25 z m -61,875 23,218 30,171 -722,6 841,460 -96,175 -96,175 -1471,-804 -1666,12 -1,-200 -1,-200 3158,-23 z M 5213,2373 v 200 200 h -595 v -200 -200 z m -799,0 v 200 200 h -595 v -200 -200 z m 1601,0 v 200 200 H 5420 V 2573 2373 Z M 1727,4409 v 200 200 h -595 v -200 -200 z m -719,0 v 200 200 H 413 v -200 -200 z m 6757,4333 195,228 195,228 -2082,1785 -195,-228 -195,-228 z m -4017,4317 -1,36 -4,36 -6,36 -8,35 -10,34 -13,34 -15,33 -17,32 -19,31 -21,29 -23,28 -25,26 -26,25 -28,23 -29,21 -31,19 -32,17 -33,15 -34,13 -34,10 -35,8 -36,6 -36,4 -36,1 -36,-1 -36,-4 -36,-6 -35,-8 -34,-10 -34,-13 -33,-15 -32,-17 -31,-19 -29,-21 -28,-23 -26,-25 -25,-26 -23,-28 -21,-29 -19,-31 -17,-32 -15,-33 -13,-34 -10,-34 -8,-35 -6,-36 -4,-36 -1,-36 1,-36 4,-36 6,-36 8,-35 10,-34 13,-34 15,-33 17,-32 19,-31 21,-29 23,-28 25,-26 26,-25 28,-23 29,-21 31,-19 32,-17 33,-15 34,-13 34,-10 35,-8 36,-6 36,-4 36,-1 36,1 36,4 36,6 35,8 34,10 34,13 33,15 32,17 31,19 29,21 28,23 26,25 25,26 23,28 21,29 19,31 17,32 15,33 13,34 10,34 8,35 6,36 4,36 z" /><rect
   style="fill:none;stroke:none"
   id="rect65"
   height="6659"
   width="6579"
   y="3031"
   x="7263"
   class="BoundingBox" /><path
   style="fill:#666666;stroke:none"
   inkscape:connector-curvature="0"
   id="path67"
   d="m 9545,3482 c -5,4 -9,9 -14,14 l -404,456 -309,-175 -191,-146 97,-71 184,-116 190,-104 196,-91 201,-77 206,-64 209,-49 154,-26 z m -901,540 c 5,4 11,8 16,11 1,0 1,0 2,0 l 264,150 -222,317 c -2,3 -4,7 -6,11 l -186,320 c 0,0 0,0 0,0 -2,4 -4,8 -6,12 l -147,314 c -2,4 -4,8 -5,13 l -104,291 -367,-191 -351,-246 70,-157 102,-195 114,-187 125,-179 137,-169 146,-160 157,-150 3,-2 z m -925,1499 c 3,3 7,5 11,8 2,1 4,2 6,3 l 436,226 -9,35 c -1,4 -2,9 -3,14 l -44,294 c -1,5 -2,9 -2,14 l -16,286 c 0,3 0,6 0,9 0,2 0,3 0,5 l 11,278 c 0,5 1,9 1,14 l 35,269 c 0,4 1,8 2,12 l 53,245 -482,-236 -435,-289 -13,-137 -7,-220 7,-221 21,-219 35,-216 49,-213 50,-167 z m -159,1731 c 3,2 5,3 8,5 3,1 6,3 9,5 l 624,306 c 5,3 11,5 17,7 l 107,36 49,144 c 2,6 5,12 8,18 l 222,447 c 1,3 3,6 4,9 1,2 3,4 4,6 l 235,364 -100,-31 -504,-222 -509,-304 -11,19 -19,-32 -102,-195 -89,-200 -76,-205 -62,-210 -24,-106 z m 1074,1595 c 5,2 11,4 16,6 l 513,157 263,289 c 2,2 5,4 7,7 l 244,236 c 1,1 3,3 5,5 l 66,57 -47,-11 -206,-64 -201,-77 -196,-91 -190,-104 -184,-116 -175,-128 -166,-139 -157,-150 -88,-96 z m 1587,830 4,10 c 0,1 0,1 0,2 l -12,-2 z m 1167,-100 c 2,-2 4,-3 5,-5 l 241,-238 c 2,-3 4,-5 6,-7 l 265,-297 c 2,-3 5,-6 7,-9 l 59,-78 55,-13 c 2,-1 5,-1 8,-2 l 362,-110 c 4,-1 7,-2 11,-4 l 593,-228 c 2,0 4,-1 6,-2 l -128,140 -157,150 -166,139 -175,128 -183,116 -191,104 -196,91 -201,77 -206,64 -45,10 z m 1875,-1449 -376,180 -583,225 -45,13 184,-292 c 1,-2 2,-4 3,-5 2,-3 3,-7 5,-10 l 219,-451 c 3,-6 5,-12 7,-18 l 89,-267 662,-283 c 4,-1 8,-3 12,-5 l 330,-177 -41,181 -62,210 -76,205 -89,200 -102,195 -21,34 z m 494,-1422 -453,241 -431,184 28,-134 c 1,-4 1,-8 2,-12 l 34,-271 c 1,-5 1,-9 1,-14 l 11,-280 c 0,-2 0,-4 0,-5 0,-3 0,-6 0,-9 l -16,-288 c 0,-5 -1,-10 -1,-14 l -44,-297 c -1,-4 -2,-9 -3,-14 l -26,-105 106,-45 c 2,-1 5,-2 7,-3 l 310,-151 c 3,-1 5,-2 8,-4 l 377,-213 62,210 49,213 35,216 21,219 7,220 -7,221 -9,93 z m -610,-1485 -303,147 -66,28 -81,-231 c -1,-4 -3,-8 -5,-12 l -145,-318 c -1,-4 -3,-7 -6,-11 l -183,-323 c 0,-1 0,-1 0,-1 -2,-3 -4,-7 -6,-10 l -203,-297 164,-75 c 2,-1 5,-2 7,-3 l 214,-113 c 1,-1 3,-2 4,-3 2,-1 3,-1 4,-2 l 217,-133 119,113 146,160 137,169 125,179 114,187 102,195 55,123 z m -758,-1482 -205,108 -234,108 -413,-477 c -5,-5 -9,-10 -14,-15 l -487,-431 158,27 209,49 206,64 201,77 196,91 190,104 184,116 137,100 z m -1811,5859 -32,68 -44,-94 -161,-404 -4,-15 366,-5 c 4,0 8,0 12,0 l 38,-4 -15,50 z m 357,-1044 -86,280 -156,15 -449,5 -100,-326 -94,-395 -30,-163 64,6 c 5,0 9,0 14,0 0,0 1,0 2,0 l 577,-7 c 4,0 9,-1 14,-1 l 379,-40 -42,230 z m 235,-1325 -49,391 -455,49 -563,7 -137,-12 -58,-461 -33,-525 2,-453 233,23 c 5,0 10,0 14,0 1,0 2,0 2,0 l 546,-7 c 5,0 10,-1 15,-1 l 514,-58 2,522 z m -13,-1674 24,326 -14,3 -507,57 -529,7 -239,-23 29,-396 94,-617 84,-359 219,23 c 5,1 10,1 15,1 1,0 2,0 3,0 l 375,-6 c 6,0 11,0 16,-1 l 243,-30 94,398 z m -458,-1916 198,608 -198,24 -359,6 -170,-18 210,-647 154,-363 z m -950,63 422,-365 -69,164 c -2,4 -4,8 -5,12 l -219,672 c -1,4 -2,8 -3,12 l -4,17 -280,-67 -175,-68 z m -576,651 31,-35 287,112 c 6,3 13,5 20,7 l 291,69 -80,343 c -1,4 -2,8 -3,12 l -95,628 c -1,4 -1,8 -1,12 l -30,395 -10,-1 -560,-123 -500,-180 6,-20 105,-295 141,-302 179,-308 z m -760,1786 39,-254 478,172 c 6,3 12,4 19,6 l 578,127 c 6,2 12,2 18,3 l 32,3 -2,486 c 0,0 0,0 0,1 0,3 0,6 1,9 l 33,534 c 0,3 1,6 1,10 l 50,400 -138,-13 -595,-124 -365,-124 -68,-199 -53,-245 -32,-256 -11,-264 z m 456,1940 -169,-340 139,47 c 6,2 12,4 18,5 l 612,128 c 6,1 12,2 17,2 l 224,21 46,248 c 0,3 1,5 1,8 l 96,404 c 1,3 2,7 2,10 l 68,217 -181,-15 -413,-77 -211,-270 z m 1013,1244 -227,-220 39,8 c 5,1 10,1 16,2 l 308,25 39,124 c 1,4 2,8 3,12 l 119,299 -103,-81 z m 1113,203 -97,77 121,-304 c 1,-4 3,-8 4,-11 l 54,-175 97,-9 c 4,-1 7,-1 11,-2 l 299,-51 -65,73 -234,232 z m 944,-1034 -141,184 -237,57 -388,67 50,-163 c 1,-3 2,-6 3,-9 l 95,-405 c 1,-2 1,-5 2,-7 l 61,-333 387,-74 c 4,-1 7,-2 11,-3 l 479,-128 c 3,-1 6,-2 9,-3 l 138,-46 -12,37 -211,435 z m 615,-1303 -28,84 -347,117 -470,125 -279,53 38,-307 c 0,-3 1,-6 1,-9 l 34,-534 c 0,-3 0,-6 0,-9 0,-1 0,-1 0,-1 l -2,-569 c 0,-4 0,-8 0,-11 l -1,-6 209,-42 c 4,0 8,-1 11,-2 l 453,-129 c 3,0 7,-1 10,-3 l 396,-141 13,53 42,283 15,275 -10,267 -33,258 z m -138,-1918 85,243 -12,5 -402,143 -443,125 -166,34 -22,-294 c 0,-4 -1,-8 -1,-11 l -96,-629 c 0,-4 -1,-8 -2,-12 l -91,-388 171,-37 c 4,-1 8,-2 12,-3 l 312,-97 c 3,-1 7,-2 10,-3 l 91,-35 23,26 215,316 177,312 z m -1100,-1590 337,389 -287,88 -170,38 -213,-656 c -2,-4 -3,-8 -5,-12 l -99,-234 z" />
</svg>