<?xml version="1.0" encoding="UTF-8" standalone="no"?>
<svg
   xmlns:ooo="http://xml.openoffice.org/svg/export"
   xmlns:dc="http://purl.org/dc/elements/1.1/"
   xmlns:cc="http://creativecommons.org/ns#"
   xmlns:rdf="http://www.w3.org/1999/02/22-rdf-syntax-ns#"
   xmlns:svg="http://www.w3.org/2000/svg"
   xmlns="http://www.w3.org/2000/svg"
   xmlns:sodipodi="http://sodipodi.sourceforge.net/DTD/sodipodi-0.dtd"
   xmlns:inkscape="http://www.inkscape.org/namespaces/inkscape"
   version="1.2"
   width="133.29001mm"
   height="133.29001mm"
   viewBox="0 0 13329.001 13329.001"
   preserveAspectRatio="xMidYMid"
   xml:space="preserve"
   id="svg66"
   sodipodi:docname="quetzal_eggs _favicon.svg"
   inkscape:version="0.92.5 (2060ec1f9f, 2020-04-08)"
   style="fill-rule:evenodd;stroke-width:28.22200012;stroke-linejoin:round"><metadata
   id="metadata70"><rdf:RDF><cc:Work
       rdf:about=""><dc:format>image/svg+xml</dc:format><dc:type
         rdf:resource="http://purl.org/dc/dcmitype/StillImage" /><dc:title></dc:title></cc:Work></rdf:RDF></metadata><sodipodi:namedview
   pagecolor="#ffffff"
   bordercolor="#666666"
   borderopacity="1"
   objecttolerance="10"
   gridtolerance="10"
   guidetolerance="10"
   inkscape:pageopacity="0"
   inkscape:pageshadow="2"
   inkscape:window-width="1848"
   inkscape:window-height="1016"
   id="namedview68"
   showgrid="false"
   inkscape:zoom="0.84096521"
   inkscape:cx="222.78715"
   inkscape:cy="436.7918"
   inkscape:window-x="72"
   inkscape:window-y="27"
   inkscape:window-maximized="1"
   inkscape:current-layer="svg66"
   fit-margin-top="0"
   fit-margin-left="0"
   fit-margin-right="0"
   fit-margin-bottom="0" />
 <defs
   class="ClipPathGroup"
   id="defs8">
  <clipPath
   id="presentation_clip_path"
   clipPathUnits="userSpaceOnUse">
   <rect
   x="0"
   y="0"
   width="21000"
   height="29700"
   id="rect2" />
  </clipPath>
  <clipPath
   id="presentation_clip_path_shrink"
   clipPathUnits="userSpaceOnUse">
   <rect
   x="21"
   y="29"
   width="20958"
   height="29641"
   id="rect5" />
  </clipPath>
 
  
 
  
 
   
  
   
   
  
    
   
     
    
      
     
       
      
        
        
       </defs>
 <defs
   class="TextShapeIndex"
   id="defs12">
  <g
   ooo:slide="id1"
   ooo:id-list="id3"
   id="g10" />
 </defs>
 <defs
   class="EmbeddedBulletChars"
   id="defs44">
  <g
   id="bullet-char-template-57356"
   transform="matrix(4.8828125e-4,0,0,-4.8828125e-4,0,0)">
   <path
   d="M 580,1141 1163,571 580,0 -4,571 Z"
   id="path14"
   inkscape:connector-curvature="0" />
  </g>
  <g
   id="bullet-char-template-57354"
   transform="matrix(4.8828125e-4,0,0,-4.8828125e-4,0,0)">
   <path
   d="M 8,1128 H 1137 V 0 H 8 Z"
   id="path17"
   inkscape:connector-curvature="0" />
  </g>
  <g
   id="bullet-char-template-10146"
   transform="matrix(4.8828125e-4,0,0,-4.8828125e-4,0,0)">
   <path
   d="M 174,0 602,739 174,1481 1456,739 Z M 1358,739 309,1346 659,739 Z"
   id="path20"
   inkscape:connector-curvature="0" />
  </g>
  <g
   id="bullet-char-template-10132"
   transform="matrix(4.8828125e-4,0,0,-4.8828125e-4,0,0)">
   <path
   d="M 2015,739 1276,0 H 717 l 543,543 H 174 v 393 h 1086 l -543,545 h 557 z"
   id="path23"
   inkscape:connector-curvature="0" />
  </g>
  <g
   id="bullet-char-template-10007"
   transform="matrix(4.8828125e-4,0,0,-4.8828125e-4,0,0)">
   <path
   d="m 0,-2 c -7,16 -16,29 -25,39 l 381,530 c -94,256 -141,385 -141,387 0,25 13,38 40,38 9,0 21,-2 34,-5 21,4 42,12 65,25 l 27,-13 111,-251 280,301 64,-25 24,25 c 21,-10 41,-24 62,-43 C 886,937 835,863 770,784 769,783 710,716 594,584 L 774,223 c 0,-27 -21,-55 -63,-84 l 16,-20 C 717,90 699,76 672,76 641,76 570,178 457,381 L 164,-76 c -22,-34 -53,-51 -92,-51 -42,0 -63,17 -64,51 -7,9 -10,24 -10,44 0,9 1,19 2,30 z"
   id="path26"
   inkscape:connector-curvature="0" />
  </g>
  <g
   id="bullet-char-template-10004"
   transform="matrix(4.8828125e-4,0,0,-4.8828125e-4,0,0)">
   <path
   d="M 285,-33 C 182,-33 111,30 74,156 52,228 41,333 41,471 c 0,78 14,145 41,201 34,71 87,106 158,106 53,0 88,-31 106,-94 l 23,-176 c 8,-64 28,-97 59,-98 l 735,706 c 11,11 33,17 66,17 42,0 63,-15 63,-46 V 965 c 0,-36 -10,-64 -30,-84 L 442,47 C 390,-6 338,-33 285,-33 Z"
   id="path29"
   inkscape:connector-curvature="0" />
  </g>
  <g
   id="bullet-char-template-9679"
   transform="matrix(4.8828125e-4,0,0,-4.8828125e-4,0,0)">
   <path
   d="M 813,0 C 632,0 489,54 383,161 276,268 223,411 223,592 c 0,181 53,324 160,431 106,107 249,161 430,161 179,0 323,-54 432,-161 108,-107 162,-251 162,-431 0,-180 -54,-324 -162,-431 C 1136,54 992,0 813,0 Z"
   id="path32"
   inkscape:connector-curvature="0" />
  </g>
  <g
   id="bullet-char-template-8226"
   transform="matrix(4.8828125e-4,0,0,-4.8828125e-4,0,0)">
   <path
   d="m 346,457 c -73,0 -137,26 -191,78 -54,51 -81,114 -81,188 0,73 27,136 81,188 54,52 118,78 191,78 73,0 134,-26 185,-79 51,-51 77,-114 77,-187 0,-75 -25,-137 -76,-188 -50,-52 -112,-78 -186,-78 z"
   id="path35"
   inkscape:connector-curvature="0" />
  </g>
  <g
   id="bullet-char-template-8211"
   transform="matrix(4.8828125e-4,0,0,-4.8828125e-4,0,0)">
   <path
   d="M -4,459 H 1135 V 606 H -4 Z"
   id="path38"
   inkscape:connector-curvature="0" />
  </g>
  <g
   id="bullet-char-template-61548"
   transform="matrix(4.8828125e-4,0,0,-4.8828125e-4,0,0)">
   <path
   d="m 173,740 c 0,163 58,303 173,419 116,115 255,173 419,173 163,0 302,-58 418,-173 116,-116 174,-256 174,-419 0,-163 -58,-303 -174,-418 C 1067,206 928,148 765,148 601,148 462,206 346,322 231,437 173,577 173,740 Z"
   id="path41"
   inkscape:connector-curvature="0" />
  </g>
 </defs>
 
 <path
   inkscape:connector-curvature="0"
   id="rect51"
   d="M 2592.9177,2.9101562e-4 H 10740.923 V 13329 H 2592.9177 Z"
   style="fill:none;stroke:none" /><path
   style="fill:#666666;stroke:none"
   inkscape:connector-curvature="0"
   id="path53"
   d="m 5760.9183,921.00035 -29,-72 -21,-72 -15,-72 -7,-71 -1,-71.00005 6,-69 13,-68 21,-64 28,-62 35,-58 43,-53 50,-48 54,-41 58,-34.000008 63,-27 65,-19 69,-13.000001 70,-6 h 73 l 73,8 74,14.000001 73,21 73,28 72,35.000008 71,41 68,48 65,54 -91,-16 -94,-8 -48,-1 -49,2 -49,6 -49,8 -49,13 -49,16 -49,21 -48,25 -48,30 -47,36 -46,40 -46,47 -42,50 -36,50 -31,50.00005 -25,51 -21,50 -15,51 -12,50 -8,50 -4,50 v 17 l 100,-29 135,-30 149,-22 163,-11 176,5 189,24 202,46 215,72 227,101.99995 238,136 168,211 143,226 119,236 93,246 69,253 45,257.9999 20,261 -5,261 -28,261 -53,257 -76,251 -101,244 -125,234 -148,222 -171,208 -196,192.0004 -179,166 -72,76 -59,73 -46,71 -18,34 -14,35 -10,35 -6,35 -3,34 2,36 6,36 10,36 14,37 18,38 51,79 70,84 89,90 110,97 283,220 13,12 5,7 4,7 2,7 2,7 v 8 8 l -5,16 -8,16 -13,17 -17,18 -20,17 -25,18 -60,35 -75,34 -89,33 -102,29 -115,26 -128,22 -138,16 -311,11 -349,-20 -385,-42 -318,-56 -255,-70 -196,-82 -77,-46 -64,-49 -51,-51 -39,-54 -27,-57 -16,-60 -5,-61 5,-65 15,-66 24,-68 73,-144 104,-150 131,-157 326,-332 384,-348.0004 107,-104 105,-120 103,-135 98,-147 92,-157 85,-164 75,-170 65,-173 52,-173 38,-172 22,-168 6,-162 -14,-153 -15,-72 -20,-70 -25,-65.9999 -31,-63 -37,-59 -44,-54 -3,-3 -4,-2 -10,-3 -30,-1 -42,6 -53,11 -134,40 -166,58 -822,326.9999 -693,275 -93,29 -29,6 h -10 l -6,-1 -2,-1 -1,-2 v -2 l 1,-3 4,-7 9,-9 29,-24 45,-32 167,-161 136,-158 108,-153.9999 84,-150 63,-146 47,-142 33,-136 24,-131 32,-244 15,-113 20,-105 29,-98 39,-90 26,-43 29,-40 35,-38 39,-35 6,5 7,4 7,3 9,1 h 20 l 25,-3 60,-17 76,-27 64,-21.99995 z m -1400,10742.99965 968,546 -1548,367 z m -1022.0002,-310 544.0002,177 -730.0003,364 z m 6117.0002,141 974.0027,-44 -262.002,794 z m -2499,1121 1561,-460 -72,1172 z m 2039,-341 544,177 -730,364 z m 303,-5505.9994 25,34 -1,-1 -511,913 -1,1 -135,264 -1,1 -76,166 v 2 l -21,53 -1,2 -11,37 v 0 1 h -1 v 1 l -3,13 v 0 1 0 1 l -2,10 v 1 1 0 1 8 1 1 0 1 1 l 1,6 v 1 l 1,1 v 2 1 l 1,2 v 1 l 1,1 v 1 h 1 v 1 l 1,1 1,1 v 2 l 1,1 1,1 1,1 1,1 1,1 1,1 h 2 l 1,1 1,1 1,1 h 1 1 l 1,1 h 1 l 1,1 h 2 1 l 1,1 h 2 v 0 h 1 1 1 1 1 1 1 1 1 l 1,-1 h 1 1 1 l 1,-1 h 2 l 1,-1 h 1 v 0 l 1,-1 2,-1 h 2 l 1,-1 2,-1 -14,-21 -3,-5 12,-2 v -3 -4 l 1,-8 3,-11 11,-36 20,-51 76,-166 135,-263 149,-267 138,142 114,133 81,111 54,89 19,36 14,31 9,26 7,20 4,16 2,10 v 6 1 l 25,-1 25,-1 v -2 -2 l -1,-7 v -2 l -2,-12 -1,-2 -4,-17 v -1 l -7,-22 -1,-2 -10,-27 v -1 l -15,-32 v -1 l -20,-38 v -1 0 l -56,-91 v -1 0 l -1,-1 v 0 l -82,-112 -1,-2 -115,-134 -1,-1 -150,-153 325,-581 150,205 148,236 98,190 60,145 18,56 12,46 7,35 4,24 1,14 v 4 l 25,-1 25,-1 v -5 -1 l -2,-16 v -1 l -4,-26 v -1 l -7,-36 -1,-1 -12,-47 -1,-1 -18,-58 -1,-2 -60,-147 v -1 h -1 v -1 0 l -100,-192 v -1 l -1,-1 -148,-237 -1,-2 -207,-284 -1,-1 -261,-313 -17,-428 120,-102 168,-162 156,-173 144,-181 131,-191 117,-197 101,-204.0004 75.0007,-180 128,251 4,10 120.001,276.0004 5,10 104.001,284 4,11 89,290 3,11 73.001,297 3,11 57,302 2,10 41,307 1,11 25,309 1,11 8,312 -200,5 200,6 -8,312 -1,11 -25,309 -1,11 -41,307 -2,10 -57,302 -3,11 -73.001,297 -3,11 -89,290 -4,11 -104.001,284 -5,10 -120.001,276 -4,10 -135,264.9994 -5,10 -1,1 -147.0007,253 -7,10 -160,240 -8,10 -172,227 -8,10 -185,212 -9,9 -195,198 -10,9 -206,181 -11,9 -216,165 -12,8 -224,147 -10,6 -3,2 -231,128 -13,7 -237,110 -14,5 -242,90 -15,5 -246,71 -3,1 -4,1 -4,1 h -4 l -250,51 -4,1 -3,1 h -4 l -4,1 -253,30 -4,1 h -4 -4 l -4,1 -254,10 h -8 -8 l -254,-10 -4,-1 h -4 -4 l -4,-1 -253,-30 -4,-1 h -4 l -3,-1 -4,-1 -250,-51 h -4 l -4,-1 -4,-1 -3,-1 -246,-71 -15,-5 -242,-90 -14,-5 -237,-110 -13,-7 -231,-128 -3,-2 -10,-6 -224,-147 -12,-8 -216,-165 -11,-9 -206,-181 -10,-9 -195,-198 -9,-9 -185,-212 -8,-10 -172,-227 -8,-10 -160.0001,-240 -7,-10 -147.0001,-253 -1,-1 -5,-10 -135.0001,-264.9994 -4,-10 -120.0001,-276 -5,-10 -104,-284 -4,-11 -89.0001,-290 -3,-11 -73,-297 -3,-11 -57,-302 -2,-10 -41.0001,-307 -1,-11 -25,-309 -1,-11 -8,-312 v -5 -6 l 8,-312 1,-11 25,-309 1,-11 41.0001,-307 2,-10 57,-302 3,-11 73,-297 3,-11 89.0001,-290 4,-11 104,-284 5,-10 92.0001,-212.0004 29,59.0004 117.0001,197 131,191 144.0001,181 131.0001,145 64,610 -94,159 h -1 v 1 l -78,149 v 1 l -56.0001,125 v 1 l -37,101 -1,2 -22,77 -1,2 -11,55 -1,2 -4,32 v 2 l -1,11 25,1 25,2 1,-10 4,-31 11,-53 22,-75 36,-100 55.0001,-123 77,-147 87,-148 408,-203 55,41 201,130 210,119 219,105 147,61 81,566 -263,316 -1,1 -207,284 -1,2 -148,237 -1,1 v 1 l -100,192 v 0 1 h -1 v 1 l -60,147 -1,2 -18,57 -1,2 -12,46 -1,2 -7,36 v 1 l -4,26 v 1 l -2,15 v 2 5 l 25,1 25,1 v -5 l 1,-13 4,-25 7,-34 12,-46 18,-56 60,-145 98,-190 135,-215 256,469 77,154 45,101 12,33 8,24 4,15 1,4 v 3 0 1 0 1 h 8 l 10,2 1,1 1,1 h 1 v 0 l -1,2 v 1 l -6,24 v 0 h 1 l 1,1 h 1 1 1 v 0 h 1 v 0 h 1 2 v 0 h 1 1 1 l 1,-1 v 0 h 1 1 l 1,-1 h 1 1 v 0 l 1,-1 h 1 l 1,-1 v 0 h 1 l 1,-1 1,-1 h 1 l 1,-1 v -1 h 1 l 1,-1 v -1 l 1,-1 v 0 l 1,-1 v -1 h 1 v -1 -1 h 1 v -1 l 1,-1 v -1 0 l 1,-1 v -1 -1 l 1,-1 v -1 -3 l 1,-1 v -1 -1 -1 -4 -1 -1 -5 -1 h -1 v -1 0 l -1,-7 v 0 -1 0 -1 l -4,-17 -1,-2 -8,-25 -1,-1 -13,-35 -1,-1 -45,-102 v -1 l -78,-155 v -1 l -268,-492 187,-257 275,-330 v 0 l 415,-350 121,379 9,-10 407,790 119,254 71,166 33,96 6,26 1,16 v 2 2 l 14,3 2,1 2,1 v 1 h 1 l -1,2 v 2 l -7,24 1,1 h 1 1 1 1 1 v 0 h 1 1 v 0 h 1 v 0 h 1 v 0 h 1 1 1 1 1 v -1 h 1 1 1 l 1,-1 h 1 l 1,-1 v 0 h 1 1 l 1,-1 1,-1 1,-1 h 1 l 1,-1 v -1 l 1,-1 h 1 l 1,-1 v -1 l 1,-1 1,-1 v 0 -1 h 1 v -1 l 1,-1 v -1 l 1,-1 v -1 0 -1 l 1,-2 v -1 l 1,-1 v -1 -1 l 1,-4 v -1 -1 -1 -1 -6 0 -1 -1 -1 0 l -2,-19 v 0 -1 -1 -1 l -7,-28 v -1 -1 h -1 v -1 l -33,-98 -1,-2 -71,-167 v -1 l -120,-255 v -1 l -417,-808 262,-307 52,8 246,22 248,7 247,-7 246,-22 243,-37 239,-50 236,-65 230,-78 225,-93 219,-105 210,-119 86,-56 344,194 z" />
</svg>