<?xml version="1.0" encoding="UTF-8"?>
<!DOCTYPE svg PUBLIC "-//W3C//DTD SVG 1.1//EN" "http://www.w3.org/Graphics/SVG/1.1/DTD/svg11.dtd">
<svg version="1.2" width="167.66mm" height="167.66mm" viewBox="6401 500 16766 16766" preserveAspectRatio="xMidYMid" fill-rule="evenodd" stroke-width="28.222" stroke-linejoin="round" xmlns="http://www.w3.org/2000/svg" xmlns:ooo="http://xml.openoffice.org/svg/export" xmlns:xlink="http://www.w3.org/1999/xlink" xmlns:presentation="http://sun.com/xmlns/staroffice/presentation" xmlns:smil="http://www.w3.org/2001/SMIL20/" xmlns:anim="urn:oasis:names:tc:opendocument:xmlns:animation:1.0" xml:space="preserve">
 <defs class="EmbeddedBulletChars">
  <g id="bullet-char-template-57356" transform="scale(0.00048828125,-0.00048828125)">
   <path d="M 580,1141 L 1163,571 580,0 -4,571 580,1141 Z"/>
  </g>
  <g id="bullet-char-template-57354" transform="scale(0.00048828125,-0.00048828125)">
   <path d="M 8,1128 L 1137,1128 1137,0 8,0 8,1128 Z"/>
  </g>
  <g id="bullet-char-template-10146" transform="scale(0.00048828125,-0.00048828125)">
   <path d="M 174,0 L 602,739 174,1481 1456,739 174,0 Z M 1358,739 L 309,1346 659,739 1358,739 Z"/>
  </g>
  <g id="bullet-char-template-10132" transform="scale(0.00048828125,-0.00048828125)">
   <path d="M 2015,739 L 1276,0 717,0 1260,543 174,543 174,936 1260,936 717,1481 1274,1481 2015,739 Z"/>
  </g>
  <g id="bullet-char-template-10007" transform="scale(0.00048828125,-0.00048828125)">
   <path d="M 0,-2 C -7,14 -16,27 -25,37 L 356,567 C 262,823 215,952 215,954 215,979 228,992 255,992 264,992 276,990 289,987 310,991 331,999 354,1012 L 381,999 492,748 772,1049 836,1024 860,1049 C 881,1039 901,1025 922,1006 886,937 835,863 770,784 769,783 710,716 594,584 L 774,223 C 774,196 753,168 711,139 L 727,119 C 717,90 699,76 672,76 641,76 570,178 457,381 L 164,-76 C 142,-110 111,-127 72,-127 30,-127 9,-110 8,-76 1,-67 -2,-52 -2,-32 -2,-23 -1,-13 0,-2 Z"/>
  </g>
  <g id="bullet-char-template-10004" transform="scale(0.00048828125,-0.00048828125)">
   <path d="M 285,-33 C 182,-33 111,30 74,156 52,228 41,333 41,471 41,549 55,616 82,672 116,743 169,778 240,778 293,778 328,747 346,684 L 369,508 C 377,444 397,411 428,410 L 1163,1116 C 1174,1127 1196,1133 1229,1133 1271,1133 1292,1118 1292,1087 L 1292,965 C 1292,929 1282,901 1262,881 L 442,47 C 390,-6 338,-33 285,-33 Z"/>
  </g>
  <g id="bullet-char-template-9679" transform="scale(0.00048828125,-0.00048828125)">
   <path d="M 813,0 C 632,0 489,54 383,161 276,268 223,411 223,592 223,773 276,916 383,1023 489,1130 632,1184 813,1184 992,1184 1136,1130 1245,1023 1353,916 1407,772 1407,592 1407,412 1353,268 1245,161 1136,54 992,0 813,0 Z"/>
  </g>
  <g id="bullet-char-template-8226" transform="scale(0.00048828125,-0.00048828125)">
   <path d="M 346,457 C 273,457 209,483 155,535 101,586 74,649 74,723 74,796 101,859 155,911 209,963 273,989 346,989 419,989 480,963 531,910 582,859 608,796 608,723 608,648 583,586 532,535 482,483 420,457 346,457 Z"/>
  </g>
  <g id="bullet-char-template-8211" transform="scale(0.00048828125,-0.00048828125)">
   <path d="M -4,459 L 1135,459 1135,606 -4,606 -4,459 Z"/>
  </g>
  <g id="bullet-char-template-61548" transform="scale(0.00048828125,-0.00048828125)">
   <path d="M 173,740 C 173,903 231,1043 346,1159 462,1274 601,1332 765,1332 928,1332 1067,1274 1183,1159 1299,1043 1357,903 1357,740 1357,577 1299,437 1183,322 1067,206 928,148 765,148 601,148 462,206 346,322 231,437 173,577 173,740 Z"/>
  </g>
 </defs>
 <g class="Page">
  <g class="com.sun.star.drawing.CustomShape">
   <g id="id3">
    <rect class="BoundingBox" stroke="none" fill="none" x="6401" y="500" width="16766" height="16766"/>
    <path fill="rgb(255,255,255)" stroke="none" d="M 9195,500 L 9195,500 C 8705,500 8223,629 7798,874 7373,1120 7021,1472 6775,1897 6530,2322 6401,2804 6401,3294 L 6401,14470 6401,14471 C 6401,14961 6530,15443 6775,15868 7021,16293 7373,16645 7798,16891 8223,17136 8705,17265 9195,17265 L 20371,17265 20372,17265 C 20862,17265 21344,17136 21769,16891 22194,16645 22546,16293 22792,15868 23037,15443 23166,14961 23166,14471 L 23166,3294 23166,3294 23166,3294 C 23166,2804 23037,2322 22792,1897 22546,1472 22194,1120 21769,874 21344,629 20862,500 20372,500 L 9195,500 Z"/>
   </g>
  </g>
  <g class="com.sun.star.drawing.CustomShape">
   <g id="id4">
    <rect class="BoundingBox" stroke="none" fill="none" x="9835" y="5096" width="9543" height="7990"/>
    <path fill="rgb(52,101,164)" stroke="none" d="M 19376,9091 C 19376,9792 19156,10480 18737,11087 18318,11694 17716,12198 16991,12549 16266,12899 15443,13084 14606,13084 13769,13084 12946,12899 12221,12549 11496,12198 10894,11694 10475,11087 10056,10480 9836,9792 9836,9091 9836,8389 10056,7701 10475,7094 10894,6487 11496,5983 12221,5632 12946,5282 13769,5097 14606,5097 15443,5097 16266,5282 16991,5632 17716,5983 18318,6487 18737,7094 19156,7701 19376,8389 19376,9090 L 19376,9091 Z"/>
    <path fill="none" stroke="rgb(52,101,164)" d="M 19376,9091 C 19376,9792 19156,10480 18737,11087 18318,11694 17716,12198 16991,12549 16266,12899 15443,13084 14606,13084 13769,13084 12946,12899 12221,12549 11496,12198 10894,11694 10475,11087 10056,10480 9836,9792 9836,9091 9836,8389 10056,7701 10475,7094 10894,6487 11496,5983 12221,5632 12946,5282 13769,5097 14606,5097 15443,5097 16266,5282 16991,5632 17716,5983 18318,6487 18737,7094 19156,7701 19376,8389 19376,9090 L 19376,9091 Z"/>
   </g>
  </g>
  <g class="Group">
   <g class="Group">
    <g class="com.sun.star.drawing.CustomShape">
     <g id="id5">
      <rect class="BoundingBox" stroke="none" fill="none" x="13871" y="8529" width="1827" height="1705"/>
      <path fill="none" stroke="rgb(255,255,255)" stroke-width="152" stroke-linejoin="round" d="M 14192,8774 L 15028,8606 15620,9213 15375,9989 14539,10156 13948,9549 14192,8774 Z"/>
     </g>
    </g>
    <g class="com.sun.star.drawing.CustomShape">
     <g id="id6">
      <rect class="BoundingBox" stroke="none" fill="none" x="14309" y="8921" width="947" height="918"/>
      <path fill="rgb(255,255,255)" stroke="none" d="M 15229,9380 C 15229,9455 15208,9530 15169,9596 15130,9661 15073,9716 15006,9754 14938,9792 14860,9812 14782,9812 14704,9812 14626,9792 14559,9754 14491,9716 14434,9661 14395,9596 14356,9530 14335,9455 14335,9380 14335,9304 14356,9229 14395,9163 14434,9098 14491,9043 14559,9005 14626,8967 14704,8947 14782,8947 14860,8947 14938,8967 15006,9005 15073,9043 15130,9098 15169,9163 15208,9229 15229,9304 15229,9380 L 15229,9380 Z"/>
      <path fill="none" stroke="rgb(255,255,255)" stroke-width="51" stroke-linejoin="round" d="M 15229,9380 C 15229,9455 15208,9530 15169,9596 15130,9661 15073,9716 15006,9754 14938,9792 14860,9812 14782,9812 14704,9812 14626,9792 14559,9754 14491,9716 14434,9661 14395,9596 14356,9530 14335,9455 14335,9380 14335,9304 14356,9229 14395,9163 14434,9098 14491,9043 14559,9005 14626,8967 14704,8947 14782,8947 14860,8947 14938,8967 15006,9005 15073,9043 15130,9098 15169,9163 15208,9229 15229,9304 15229,9380 Z"/>
     </g>
    </g>
   </g>
  </g>
  <g class="com.sun.star.drawing.EllipseShape">
   <g id="id7">
    <rect class="BoundingBox" stroke="none" fill="none" x="9770" y="10295" width="10177" height="4692"/>
    <path fill="none" stroke="rgb(52,101,164)" stroke-width="305" stroke-linejoin="round" d="M 19793,12973 C 19727,13061 19655,13148 19576,13233 19122,13719 18469,14123 17683,14404 16896,14685 16004,14833 15096,14833 14188,14833 13296,14685 12510,14404 11723,14123 11070,13719 10616,13233 10162,12746 9923,12194 9923,11632 9923,11227 10047,10825 10290,10448"/>
   </g>
  </g>
  <g class="com.sun.star.drawing.EllipseShape">
   <g id="id8">
    <rect class="BoundingBox" stroke="none" fill="none" x="14152" y="3598" width="6309" height="10143"/>
    <path fill="none" stroke="rgb(52,101,164)" stroke-width="305" stroke-linejoin="round" d="M 16013,3751 C 16592,3855 17148,4050 17658,4326 18464,4762 19132,5388 19597,6142 20062,6897 20307,7753 20307,8624 20307,9495 20062,10351 19597,11106 19132,11860 18464,12486 17659,12922 16853,13358 15940,13587 15010,13587 14774,13587 14539,13572 14305,13543"/>
   </g>
  </g>
  <g class="com.sun.star.drawing.EllipseShape">
   <g id="id9">
    <rect class="BoundingBox" stroke="none" fill="none" x="19602" y="11115" width="662" height="2116"/>
    <path fill="none" stroke="rgb(52,101,164)" stroke-width="305" stroke-linejoin="round" d="M 19783,13077 C 19735,12767 19749,12434 19826,12087 19884,11818 19980,11544 20110,11268"/>
   </g>
  </g>
  <g class="com.sun.star.drawing.EllipseShape">
   <g id="id10">
    <rect class="BoundingBox" stroke="none" fill="none" x="19564" y="12026" width="1968" height="1094"/>
    <path fill="none" stroke="rgb(52,101,164)" stroke-width="305" stroke-linejoin="round" d="M 21378,12179 C 21154,12398 20875,12581 20548,12721 20296,12829 20017,12911 19717,12966"/>
   </g>
  </g>
  <g class="com.sun.star.drawing.EllipseShape">
   <g id="id11">
    <rect class="BoundingBox" stroke="none" fill="none" x="19564" y="11617" width="1637" height="824"/>
    <path fill="none" stroke="rgb(52,101,164)" stroke-width="305" stroke-linejoin="round" d="M 21047,11770 C 20896,11873 20729,11964 20548,12042 20296,12150 20017,12232 19717,12287"/>
   </g>
  </g>
  <g class="com.sun.star.drawing.EllipseShape">
   <g id="id12">
    <rect class="BoundingBox" stroke="none" fill="none" x="11561" y="4371" width="8662" height="6051"/>
    <path fill="none" stroke="rgb(52,101,164)" stroke-width="305" stroke-linejoin="round" d="M 11714,5134 C 12545,4734 13477,4524 14424,4524 15415,4524 16388,4754 17246,5190 18105,5626 18817,6254 19313,7009 19808,7765 20069,8622 20069,9495 20069,9754 20046,10013 20000,10268"/>
   </g>
  </g>
  <g class="Group">
   <g class="com.sun.star.drawing.EllipseShape">
    <g id="id13">
     <rect class="BoundingBox" stroke="none" fill="none" x="15634" y="1927" width="662" height="2117"/>
     <path fill="none" stroke="rgb(52,101,164)" stroke-width="305" stroke-linejoin="round" d="M 15787,2080 C 15917,2357 16013,2632 16072,2900 16148,3247 16162,3580 16114,3890"/>
    </g>
   </g>
   <g class="com.sun.star.drawing.EllipseShape">
    <g id="id14">
     <rect class="BoundingBox" stroke="none" fill="none" x="14367" y="2838" width="1968" height="1094"/>
     <path fill="none" stroke="rgb(52,101,164)" stroke-width="305" stroke-linejoin="round" d="M 16181,3778 C 15881,3723 15602,3641 15350,3533 15023,3393 14744,3210 14520,2991"/>
    </g>
   </g>
   <g class="com.sun.star.drawing.EllipseShape">
    <g id="id15">
     <rect class="BoundingBox" stroke="none" fill="none" x="14698" y="2429" width="1637" height="824"/>
     <path fill="none" stroke="rgb(52,101,164)" stroke-width="305" stroke-linejoin="round" d="M 16181,3099 C 15881,3044 15602,2962 15350,2854 15169,2776 15002,2685 14851,2582"/>
    </g>
   </g>
  </g>
  <g class="com.sun.star.drawing.EllipseShape">
   <g id="id16">
    <rect class="BoundingBox" stroke="none" fill="none" x="10567" y="10327" width="8399" height="4272"/>
    <path fill="none" stroke="rgb(52,101,164)" stroke-width="305" stroke-linejoin="round" d="M 18788,10480 C 18832,10839 18816,11196 18740,11541 18592,12215 18219,12828 17658,13316 17098,13804 16371,14152 15549,14323 14727,14495 13840,14484 12977,14293 12152,14110 11376,13768 10720,13298"/>
   </g>
  </g>
  <g class="com.sun.star.drawing.EllipseShape">
   <g id="id17">
    <rect class="BoundingBox" stroke="none" fill="none" x="8484" y="9777" width="7875" height="4070"/>
    <path fill="none" stroke="rgb(52,101,164)" stroke-width="305" stroke-linejoin="round" d="M 16205,12566 C 15807,12924 15332,13207 14808,13401 14098,13662 13320,13751 12550,13657 11780,13563 11046,13291 10423,12868 9799,12444 9307,11884 8997,11244 8794,10826 8672,10381 8637,9930"/>
   </g>
  </g>
  <g class="com.sun.star.drawing.EllipseShape">
   <g id="id18">
    <rect class="BoundingBox" stroke="none" fill="none" x="7571" y="9756" width="1559" height="1654"/>
    <path fill="none" stroke="rgb(52,101,164)" stroke-width="305" stroke-linejoin="round" d="M 8976,11256 C 8699,11109 8441,10897 8209,10628 8029,10420 7867,10179 7724,9909"/>
   </g>
  </g>
  <g class="com.sun.star.drawing.EllipseShape">
   <g id="id19">
    <rect class="BoundingBox" stroke="none" fill="none" x="9056" y="6794" width="5195" height="6383"/>
    <path fill="none" stroke="rgb(52,101,164)" stroke-width="305" stroke-linejoin="round" d="M 14097,12916 C 13425,13073 12724,13057 12063,12868 11391,12677 10784,12315 10303,11818 9821,11321 9482,10708 9318,10039 9155,9370 9174,8669 9373,8008 9486,7632 9656,7274 9876,6947"/>
   </g>
  </g>
  <g class="com.sun.star.drawing.EllipseShape">
   <g id="id20">
    <rect class="BoundingBox" stroke="none" fill="none" x="14764" y="6657" width="4525" height="4319"/>
    <path fill="none" stroke="rgb(255,255,255)" stroke-width="305" stroke-linejoin="round" d="M 14917,6810 C 15263,6878 15604,6980 15935,7115 16720,7434 17425,7926 17979,8542 18534,9157 18918,9875 19094,10623 19109,10689 19123,10755 19135,10822"/>
   </g>
  </g>
  <g class="Group">
   <g class="com.sun.star.drawing.CustomShape">
    <g id="id21">
     <rect class="BoundingBox" stroke="none" fill="none" x="11466" y="9476" width="2314" height="2554"/>
     <path fill="rgb(255,255,255)" stroke="none" d="M 13437,11343 C 13293,11541 13114,11709 12918,11829 12722,11950 12516,12018 12320,12028 12124,12037 11946,11988 11803,11884 11660,11781 11557,11626 11505,11437 11453,11248 11454,11031 11507,10807 11560,10583 11664,10361 11808,10162 11952,9964 12131,9796 12327,9675 12523,9555 12730,9487 12925,9477 13121,9468 13300,9517 13443,9621 13586,9724 13688,9878 13740,10067 13792,10256 13791,10474 13738,10698 13685,10921 13581,11144 13437,11343 L 13437,11343 Z"/>
    </g>
   </g>
   <g class="com.sun.star.drawing.CustomShape">
    <g id="id22">
     <rect class="BoundingBox" stroke="none" fill="none" x="13959" y="10531" width="2868" height="2074"/>
     <path fill="rgb(255,255,255)" stroke="none" d="M 15230,12578 C 14980,12538 14742,12452 14540,12328 14338,12205 14179,12048 14079,11875 13978,11701 13941,11516 13969,11339 13998,11161 14092,10998 14241,10864 14391,10731 14591,10632 14822,10578 15053,10524 15306,10517 15556,10557 15806,10597 16044,10683 16246,10807 16448,10930 16607,11087 16707,11260 16808,11434 16845,11619 16817,11796 16788,11974 16694,12137 16545,12271 16395,12404 16195,12503 15964,12557 15733,12611 15480,12618 15230,12578 L 15230,12578 Z"/>
    </g>
   </g>
   <g class="com.sun.star.drawing.CustomShape">
    <g id="id23">
     <rect class="BoundingBox" stroke="none" fill="none" x="15931" y="8923" width="2525" height="1901"/>
     <path fill="rgb(255,255,255)" stroke="none" d="M 16863,10683 C 16649,10596 16454,10473 16298,10327 16142,10180 16030,10015 15973,9849 15916,9682 15917,9519 15975,9377 16033,9235 16146,9118 16303,9038 16460,8959 16656,8919 16870,8923 17084,8928 17309,8976 17523,9063 17737,9150 17932,9273 18088,9419 18244,9566 18356,9731 18413,9897 18470,10064 18469,10227 18411,10369 18353,10511 18240,10628 18083,10708 17926,10787 17730,10827 17516,10823 17302,10818 17077,10770 16863,10683 L 16863,10683 Z"/>
    </g>
   </g>
  </g>
  <g class="com.sun.star.drawing.EllipseShape">
   <g id="id24">
    <rect class="BoundingBox" stroke="none" fill="none" x="10200" y="5132" width="7059" height="6648"/>
    <path fill="none" stroke="rgb(255,255,255)" stroke-width="305" stroke-linejoin="round" d="M 10678,11626 C 10641,11544 10606,11461 10575,11376 10325,10697 10285,9946 10461,9198 10637,8450 11021,7733 11575,7117 12130,6501 12835,6009 13620,5690 14404,5371 15241,5237 16046,5300 16412,5329 16768,5398 17105,5507"/>
   </g>
  </g>
  <g class="com.sun.star.drawing.EllipseShape">
   <g id="id25">
    <rect class="BoundingBox" stroke="none" fill="none" x="10086" y="5294" width="9707" height="4483"/>
    <path fill="none" stroke="rgb(255,255,255)" stroke-width="305" stroke-linejoin="round" d="M 10241,8687 C 10222,8235 10298,7801 10463,7406 10717,6802 11174,6303 11790,5959 12405,5615 13157,5438 13970,5447 14783,5456 15628,5649 16421,6008 17213,6366 17925,6878 18485,7490 19045,8103 19433,8795 19610,9498 19620,9540 19630,9581 19639,9623"/>
   </g>
  </g>
  <g class="com.sun.star.drawing.EllipseShape">
   <g id="id26">
    <rect class="BoundingBox" stroke="none" fill="none" x="9674" y="6871" width="3153" height="3440"/>
    <path fill="none" stroke="rgb(255,255,255)" stroke-width="305" stroke-linejoin="round" d="M 9827,10157 C 9851,9817 9922,9488 10039,9179 10288,8513 10740,7955 11348,7561 11739,7307 12187,7126 12673,7024"/>
   </g>
  </g>
 </g>
</svg>