<?xml version="1.0" encoding="UTF-8" standalone="no"?>
<svg
   xmlns:ooo="http://xml.openoffice.org/svg/export"
   xmlns:dc="http://purl.org/dc/elements/1.1/"
   xmlns:cc="http://creativecommons.org/ns#"
   xmlns:rdf="http://www.w3.org/1999/02/22-rdf-syntax-ns#"
   xmlns:svg="http://www.w3.org/2000/svg"
   xmlns="http://www.w3.org/2000/svg"
   xmlns:sodipodi="http://sodipodi.sourceforge.net/DTD/sodipodi-0.dtd"
   xmlns:inkscape="http://www.inkscape.org/namespaces/inkscape"
   version="1.2"
   width="127mm"
   height="127mm"
   viewBox="0 0 12700 12700"
   preserveAspectRatio="xMidYMid"
   fill-rule="evenodd"
   stroke-width="28.222"
   stroke-linejoin="round"
   xml:space="preserve"
   id="svg66"
   sodipodi:docname="quetzal-coaltl-fa.svg"
   inkscape:version="0.92.5 (2060ec1f9f, 2020-04-08)"><metadata
   id="metadata70"><rdf:RDF><cc:Work
       rdf:about=""><dc:format>image/svg+xml</dc:format><dc:type
         rdf:resource="http://purl.org/dc/dcmitype/StillImage" /><dc:title></dc:title></cc:Work></rdf:RDF></metadata><sodipodi:namedview
   pagecolor="#ffffff"
   bordercolor="#666666"
   borderopacity="1"
   objecttolerance="10"
   gridtolerance="10"
   guidetolerance="10"
   inkscape:pageopacity="0"
   inkscape:pageshadow="2"
   inkscape:window-width="1848"
   inkscape:window-height="1016"
   id="namedview68"
   showgrid="false"
   inkscape:zoom="0.49166667"
   inkscape:cx="240"
   inkscape:cy="240"
   inkscape:window-x="72"
   inkscape:window-y="27"
   inkscape:window-maximized="1"
   inkscape:current-layer="svg66" />
 <defs
   class="ClipPathGroup"
   id="defs8">
  <clipPath
   id="presentation_clip_path"
   clipPathUnits="userSpaceOnUse">
   <rect
   x="0"
   y="0"
   width="12700"
   height="12700"
   id="rect2" />
  </clipPath>
  <clipPath
   id="presentation_clip_path_shrink"
   clipPathUnits="userSpaceOnUse">
   <rect
   x="12"
   y="12"
   width="12675"
   height="12675"
   id="rect5" />
  </clipPath>
 
  
 
  
 
   
  
   
   
  
    
   
     
    
      
     
       
      
        
        
       </defs>
 <defs
   class="TextShapeIndex"
   id="defs12">
  <g
   ooo:slide="id1"
   ooo:id-list="id3"
   id="g10" />
 </defs>
 <defs
   class="EmbeddedBulletChars"
   id="defs44">
  <g
   id="bullet-char-template-57356"
   transform="scale(0.00048828125,-0.00048828125)">
   <path
   d="M 580,1141 L 1163,571 580,0 -4,571 580,1141 Z"
   id="path14" />
  </g>
  <g
   id="bullet-char-template-57354"
   transform="scale(0.00048828125,-0.00048828125)">
   <path
   d="M 8,1128 L 1137,1128 1137,0 8,0 8,1128 Z"
   id="path17" />
  </g>
  <g
   id="bullet-char-template-10146"
   transform="scale(0.00048828125,-0.00048828125)">
   <path
   d="M 174,0 L 602,739 174,1481 1456,739 174,0 Z M 1358,739 L 309,1346 659,739 1358,739 Z"
   id="path20" />
  </g>
  <g
   id="bullet-char-template-10132"
   transform="scale(0.00048828125,-0.00048828125)">
   <path
   d="M 2015,739 L 1276,0 717,0 1260,543 174,543 174,936 1260,936 717,1481 1274,1481 2015,739 Z"
   id="path23" />
  </g>
  <g
   id="bullet-char-template-10007"
   transform="scale(0.00048828125,-0.00048828125)">
   <path
   d="M 0,-2 C -7,14 -16,27 -25,37 L 356,567 C 262,823 215,952 215,954 215,979 228,992 255,992 264,992 276,990 289,987 310,991 331,999 354,1012 L 381,999 492,748 772,1049 836,1024 860,1049 C 881,1039 901,1025 922,1006 886,937 835,863 770,784 769,783 710,716 594,584 L 774,223 C 774,196 753,168 711,139 L 727,119 C 717,90 699,76 672,76 641,76 570,178 457,381 L 164,-76 C 142,-110 111,-127 72,-127 30,-127 9,-110 8,-76 1,-67 -2,-52 -2,-32 -2,-23 -1,-13 0,-2 Z"
   id="path26" />
  </g>
  <g
   id="bullet-char-template-10004"
   transform="scale(0.00048828125,-0.00048828125)">
   <path
   d="M 285,-33 C 182,-33 111,30 74,156 52,228 41,333 41,471 41,549 55,616 82,672 116,743 169,778 240,778 293,778 328,747 346,684 L 369,508 C 377,444 397,411 428,410 L 1163,1116 C 1174,1127 1196,1133 1229,1133 1271,1133 1292,1118 1292,1087 L 1292,965 C 1292,929 1282,901 1262,881 L 442,47 C 390,-6 338,-33 285,-33 Z"
   id="path29" />
  </g>
  <g
   id="bullet-char-template-9679"
   transform="scale(0.00048828125,-0.00048828125)">
   <path
   d="M 813,0 C 632,0 489,54 383,161 276,268 223,411 223,592 223,773 276,916 383,1023 489,1130 632,1184 813,1184 992,1184 1136,1130 1245,1023 1353,916 1407,772 1407,592 1407,412 1353,268 1245,161 1136,54 992,0 813,0 Z"
   id="path32" />
  </g>
  <g
   id="bullet-char-template-8226"
   transform="scale(0.00048828125,-0.00048828125)">
   <path
   d="M 346,457 C 273,457 209,483 155,535 101,586 74,649 74,723 74,796 101,859 155,911 209,963 273,989 346,989 419,989 480,963 531,910 582,859 608,796 608,723 608,648 583,586 532,535 482,483 420,457 346,457 Z"
   id="path35" />
  </g>
  <g
   id="bullet-char-template-8211"
   transform="scale(0.00048828125,-0.00048828125)">
   <path
   d="M -4,459 L 1135,459 1135,606 -4,606 -4,459 Z"
   id="path38" />
  </g>
  <g
   id="bullet-char-template-61548"
   transform="scale(0.00048828125,-0.00048828125)">
   <path
   d="M 173,740 C 173,903 231,1043 346,1159 462,1274 601,1332 765,1332 928,1332 1067,1274 1183,1159 1299,1043 1357,903 1357,740 1357,577 1299,437 1183,322 1067,206 928,148 765,148 601,148 462,206 346,322 231,437 173,577 173,740 Z"
   id="path41" />
  </g>
 </defs>
 
 <rect
   style="fill:none;stroke:none"
   id="rect51"
   height="12461"
   width="9094"
   y="79"
   x="1893"
   class="BoundingBox" /><path
   style="fill:#666666;stroke:none"
   inkscape:connector-curvature="0"
   id="path53"
   d="m 7998,7325 1,1 h 2577 l 27,1 26,3 27,4 26,6 25,8 26,9 24,11 24,13 23,14 22,16 20,17 20,18 18,20 17,20 16,22 14,23 13,24 11,24 9,26 8,25 6,26 4,27 3,26 1,27 v 1642 l -1,27 -3,26 -4,27 -6,26 -8,25 -9,26 -11,24 -13,24 -14,23 -16,22 -17,20 -18,20 -20,18 -20,17 -22,16 -23,14 -7,4 -2713,-26 489,-417 903,-21 1,3 20,37 28,34 35,26 39,18 39,10 39,4 38,-5 40,-12 38,-20 33,-28 26,-36 18,-37 12,-40 2,-38 -4,-40 -14,-38 -20,-38 -28,-34 -34,-26 -38,-19 -40,-9 -39,-4 -39,5 -38,12 -38,20 -34,28 -27,36 -18,38 -1,3 -718,17 849,-724 4,2 38,16 43,9 44,-2 42,-10 36,-17 33,-22 27,-28 23,-35 17,-39 7,-42 -2,-44 -9,-41 -16,-38 -22,-31 -29,-28 -34,-21 -40,-17 -43,-9 -43,1 -41,10 -38,18 -32,21 -27,29 -22,33 -17,40 -9,43 2,44 10,42 1,2 -1651,1407 -717,-7 -243,-410 h -614 l -306,517 306,518 h 614 l 220,-371 1007,9 1336,680 v 4 41 l 8,44 19,40 26,34 29,27 33,22 36,13 41,9 h 42 l 43,-9 39,-19 34,-24 29,-30 21,-32 15,-37 6,-40 v -43 l -8,-43 -18,-40 -25,-34 -31,-28 -32,-21 -37,-14 -39,-8 h -43 l -43,8 -40,19 -35,26 -1,1 -1068,-543 1857,18 v 1869 l -1,45 -5,45 -7,44 -10,43 -13,43 -16,42 -18,41 -22,39 -23,38 -26,37 -29,34 -30,33 -33,30 -34,29 -37,26 -38,23 -39,22 -41,18 -42,16 -43,13 -43,10 -44,7 -45,5 -45,1 v 0 H 3222 l -45,-1 -45,-5 -44,-7 -43,-10 -43,-13 -42,-16 -41,-18 -39,-22 -38,-23 -37,-26 -34,-29 -33,-30 -30,-33 -29,-34 -26,-37 -23,-38 -22,-39 -18,-41 -16,-42 -13,-43 -10,-43 -7,-44 -5,-45 -1,-45 v 0 -1886 l 2288,22 125,28 250,67 108,37 91,40 38,20 32,22 26,21 18,23 119,175 59,79 61,69 30,30 31,28 31,24 31,20 31,16 32,12 32,7 33,3 65,-2 65,-6 64,-9 64,-13 62,-17 61,-21 59,-24 58,-28 56,-31 53,-34 50,-38 47,-40 18,-17 h -610 l -343,-624 343,-624 h 593 l -1,-1 -47,-40 -50,-38 -53,-34 -56,-31 -58,-28 -59,-24 -61,-21 -62,-17 -64,-13 -64,-9 -65,-6 -65,-2 -33,2 -32,7 -33,11 -32,15 -32,19 -32,22 -31,26 -31,29 -61,68 -60,78 -57,88 -56,96 -11,13 -15,13 -44,27 -61,29 -74,28 -179,59 -207,58 -498,125 -2361,-22 -11,-8 -20,-17 -20,-18 -18,-20 -17,-20 -16,-22 -14,-23 -13,-24 -11,-24 -9,-26 -8,-25 -6,-26 -4,-27 -3,-26 -1,-27 v -1 -1641 l 1,-27 3,-26 4,-27 6,-26 8,-25 9,-26 11,-24 13,-24 14,-23 16,-22 17,-20 18,-20 20,-18 20,-17 22,-16 23,-14 24,-13 24,-11 26,-9 25,-8 26,-6 27,-4 26,-3 27,-1 h 3140 v -1 z m -2685,-356 -14,-50 -31,-166 -16,-168 -2,-171 15,-173 30,-175 47,-177 64,-177 183,-359 270,-324 259,-359 233,-380 191,-383 75,-189 59,-183 41,-177 21,-168 -1,-158 -9,-74 -16,-71 -22,-67 -29,-63 -35,-59 -43,-55 -7,-8 -11,-9 -28,-24 -38,-29 -47,-36 -1637,626 983,-1029 -213,-110 -226,-105 -236,-97 -241,-83 -243,-67 -241,-45 -119,-13 -116,-6 -114,1 -111,10 21,-51 26,-45 30,-42 35,-37 40,-33 43,-30 96,-48 107,-38 115,-27 122,-19 124,-13 470,-34 97,-14 84,-20 36,-12 32,-15 27,-18 22,-20 83,-51 h -1 v 0 -1 h -1 v 0 -1 h 1 v -1 l 1,-1 1,-1 3,-2 10,-6 13,-7 12,-6 10,-7 4,-2 1,-2 1,-1 v 0 -1 0 -1 0 0 -1 h -1 l 47,-32 20,-15 11,-8 10,-9 10,-11 10,-12 11,-13 11,-16 23,-40 26,-52 13,-29 10,-28 9,-27 6,-27 4,-25 3,-24 1,-24 v -23 l -2,-22 -2,-21 -4,-20 -5,-20 -12,-37 -15,-33 27,14 24,18 22,19 20,22 17,23 15,26 13,26 10,29 7,29 5,30 2,31 -1,31 -4,31 -6,32 -10,31 -13,31 -4,8 -4,9 -5,8 -5,8 75,-16 27,-18 28,-20 26,-24 27,-27 25,-31 25,-35 24,-39 22,-44 15,-35 13,-33 10,-32 8,-31 6,-30 4,-30 2,-28 v -27 l -1,-25 -3,-25 -4,-24 -5,-23 -13,-43 -16,-39 30,16 27,19 24,23 22,25 19,27 17,29 13,32 11,33 7,34 5,35 1,37 -2,37 -5,37 -9,37 -12,37 -15,37 -11,22 -11,21 -13,19 -14,19 -14,19 -15,17 -16,16 -17,15 h 20 l 127,9 10,-11 11,-12 10,-12 9,-14 10,-15 9,-15 9,-17 9,-17 11,-24 8,-24 7,-22 6,-22 4,-22 2,-20 1,-20 v -19 l -1,-18 -3,-18 -3,-17 -4,-16 -11,-31 -12,-28 22,12 21,14 18,17 17,18 15,19 12,22 11,22 8,24 6,24 4,26 2,25 -1,26 -3,27 -6,26 -8,26 -11,26 -2,5 -3,5 -5,10 -6,10 -6,9 19,-15 18,-16 18,-19 18,-21 18,-23 17,-26 16,-28 16,-31 13,-29 10,-28 9,-27 7,-26 5,-25 3,-25 2,-23 v -23 l -1,-22 -2,-21 -3,-20 -4,-19 -11,-36 -13,-33 16,9 16,9 15,11 13,12 13,13 12,14 11,14 9,16 9,16 8,17 7,17 6,18 4,19 4,19 3,19 1,20 18,-35 16,-34 13,-34 11,-33 8,-33 6,-32 5,-31 2,-30 1,-30 -1,-29 -6,-56 -11,-53 -14,-49 39,31 34,34 31,37 26,39 22,42 18,44 14,46 9,47 5,47 v 48 l -4,48 -9,48 -13,48 -18,46 -23,45 -28,44 -10,14 -11,14 -11,13 -11,12 -12,12 -12,12 -12,11 -13,11 36,-11 37,-15 36,-18 37,-23 36,-28 36,-33 35,-38 34,-45 23,-34 19,-34 17,-33 14,-32 11,-32 8,-31 7,-30 4,-30 2,-29 v -28 l -1,-27 -3,-27 -9,-51 -13,-47 33,26 29,29 26,31 22,33 18,36 16,36 11,39 8,39 4,40 v 40 l -3,41 -8,40 -11,40 -15,39 -20,38 -23,36 -2,4 -3,3 -5,7 51,-1 h 53 l 112,6 121,14 133,22 188,25 177,11 298,4 111,7 44,7 19,5 17,6 14,8 12,8 10,10 7,12 4,13 2,14 -1,17 -4,18 -13,-11 -14,-8 -14,-7 -14,-6 -14,-3 -15,-3 h -32 l -35,3 -39,8 -92,20 -116,23 -146,17 -182,5 -224,-16 -22,-3 -10,-1 -11,-1 420,85 96,22 96,31 95,40 93,46 90,52 86,56 81,61 75,62 68,64 61,64 53,64 43,61 32,58 22,54 6,25 3,24 v 22 l -4,20 -331,-337 -64,-51 -70,-48 -78,-46 -84,-43 -93,-37 -100,-33 -110,-26 -118,-18 -190,-25 -155,-27 -131,-28 -116,-30 501,248 123,57 119,50 116,40 56,15 55,12 96,24 96,36 94,47 92,57 88,63 85,70 79,75 74,77 67,79 59,78 51,77 42,73 32,69 20,61 6,28 3,26 v 23 l -4,21 -28,-29 -30,-38 -71,-99 -87,-121 -107,-129 -63,-65 -68,-63 -76,-59 -84,-55 -91,-48 -100,-40 -109,-31 -118,-20 -47,-6 -45,-8 -44,-10 -43,-11 -42,-12 -40,-13 -40,-15 -38,-16 106,63 52,29 52,25 52,22 50,19 51,15 49,11 47,12 46,19 45,24 43,31 41,36 40,40 76,95 69,109 63,120 56,128 50,133 80,267 52,245 15,107 8,91 1,72 -3,29 -4,22 -13,-14 -13,-20 -23,-53 -46,-153 -53,-196 -67,-217 -42,-109 -50,-105 -57,-100 -67,-90 -78,-78 -43,-34 -46,-30 -49,-25 -53,-21 -56,-15 -60,-10 -23,-3 -23,-4 -23,-4 -22,-5 -43,-12 -41,-14 26,51 71,195 46,203 21,214 -5,229 -32,246 -57,268 -13,44 17,18 18,17 18,17 19,15 36,33 32,38 27,43 23,47 20,51 16,55 22,119 9,129 -1,136 -12,140 -18,140 -57,273 -70,241 -37,100 -36,85 -34,64 -16,23 -14,18 -5,-18 -1,-22 3,-56 30,-149 45,-188 43,-213 16,-111 9,-113 v -112 l -11,-109 -23,-104 -18,-50 -21,-49 -26,-46 -31,-44 -35,-42 -40,-39 -81,232 -308,742 -420,896 -25,206 6,196 34,187 60,177 82,169 102,160 54,69 z m 1483,2833 c 0,40 -10,79 -30,113 -20,34 -49,63 -83,83 -34,20 -73,30 -113,30 -40,0 -79,-10 -113,-30 -34,-20 -63,-49 -83,-83 -20,-34 -30,-73 -30,-113 0,-40 10,-79 30,-113 20,-34 49,-63 83,-83 34,-20 73,-30 113,-30 40,0 79,10 113,30 34,20 63,49 83,83 20,34 30,73 30,113 z" />
</svg>